{"glyphs":{"0":{"ha":777,"x_min":62,"x_max":714,"o":"m 714 497 q 694 288 714 382 q 633 127 674 194 q 532 23 593 60 q 389 -14 471 -14 q 241 23 303 -14 q 140 127 180 60 q 81 289 100 194 q 62 498 62 383 q 81 707 62 614 q 140 867 100 801 q 242 970 180 934 q 390 1006 304 1006 q 532 970 471 1006 q 633 867 593 934 q 694 707 674 801 q 714 497 714 613 m 207 497 q 216 313 207 394 q 247 176 226 232 q 303 91 269 120 q 389 61 338 61 q 474 91 439 61 q 530 176 509 120 q 561 313 551 232 q 570 497 570 394 q 561 681 570 600 q 530 817 551 762 q 474 902 509 873 q 390 930 440 930 q 304 902 339 930 q 248 817 269 873 q 216 681 226 762 q 207 497 207 600 z "},"1":{"ha":777,"x_min":92,"x_max":663,"o":"m 134 0 l 134 58 l 227 58 q 271 62 250 58 q 307 76 292 65 q 331 106 322 86 q 340 158 340 125 l 340 888 q 290 829 314 855 q 245 783 267 802 q 202 754 223 764 q 161 743 182 743 q 111 764 131 743 q 92 818 92 785 q 134 831 113 823 q 179 851 155 839 q 232 882 203 864 q 294 925 260 900 l 392 997 l 481 997 l 481 158 q 490 106 481 125 q 514 76 498 86 q 550 62 530 65 q 595 58 571 58 l 663 58 l 663 0 l 134 0 z "},"2":{"ha":777,"x_min":71,"x_max":675,"o":"m 640 774 q 625 679 640 725 q 579 584 609 633 q 506 484 549 536 q 408 371 463 431 l 174 111 l 494 111 q 546 120 526 111 q 579 143 566 129 q 599 176 592 157 q 611 215 606 195 l 616 240 l 675 240 l 668 0 l 71 0 l 71 102 l 302 370 q 396 485 358 434 q 456 581 433 536 q 490 669 479 626 q 500 760 500 712 q 491 832 500 800 q 466 887 483 864 q 421 923 448 911 q 358 936 395 936 q 281 919 311 936 q 235 873 252 902 q 212 808 218 845 q 205 729 205 770 q 159 733 180 729 q 121 748 137 737 q 95 775 104 758 q 86 819 86 793 q 103 893 86 859 q 155 953 121 928 q 240 992 189 978 q 358 1006 291 1006 q 476 989 424 1006 q 565 942 528 972 q 621 869 602 912 q 640 774 640 827 z "},"3":{"ha":777,"x_min":81,"x_max":696,"o":"m 345 61 q 423 73 386 61 q 489 111 460 84 q 534 180 517 137 q 551 285 551 222 q 534 365 551 329 q 484 425 517 400 q 405 464 452 450 q 300 478 358 478 l 256 478 l 256 549 l 300 549 q 386 564 346 549 q 455 607 425 579 q 501 674 484 635 q 518 764 518 714 q 510 836 518 804 q 484 890 502 868 q 438 924 466 913 q 370 936 410 936 q 292 919 322 936 q 245 873 262 902 q 222 808 229 845 q 216 729 216 770 q 170 733 191 729 q 132 748 148 737 q 106 775 115 758 q 97 819 97 793 q 114 893 97 859 q 166 953 132 928 q 252 992 201 978 q 370 1006 302 1006 q 489 991 435 1006 q 581 948 543 976 q 640 879 619 920 q 661 785 661 838 q 645 696 661 738 q 598 622 628 655 q 528 564 568 588 q 439 529 487 541 q 494 520 465 526 q 551 501 523 513 q 606 471 580 489 q 652 426 632 452 q 684 365 672 399 q 696 283 696 330 q 681 184 696 228 q 640 107 666 140 q 579 51 614 74 q 505 14 545 28 q 425 -7 466 -1 q 343 -14 383 -14 q 225 -1 275 -14 q 143 33 176 12 q 96 82 111 54 q 81 140 81 110 q 104 206 81 182 q 168 229 128 229 q 180 162 168 193 q 214 109 192 131 q 270 74 237 86 q 345 61 302 61 z "},"4":{"ha":777,"x_min":24,"x_max":757,"o":"m 585 272 l 585 158 q 594 106 585 125 q 618 76 603 86 q 654 62 633 65 q 699 58 675 58 l 717 58 l 717 0 l 298 0 l 298 58 l 338 58 q 382 62 361 58 q 418 76 403 65 q 443 106 433 86 q 452 158 452 125 l 452 272 l 24 272 l 24 329 l 453 991 l 585 991 l 585 350 l 757 350 l 757 272 l 585 272 m 452 607 q 452 674 452 637 q 454 749 453 711 q 457 824 455 787 q 461 895 458 862 q 448 869 456 885 q 428 833 439 853 q 404 792 416 814 q 379 750 391 770 q 355 711 366 729 q 336 681 345 693 l 123 350 l 452 350 l 452 607 z "},"5":{"ha":777,"x_min":77,"x_max":675,"o":"m 332 68 q 411 80 374 68 q 474 119 447 92 q 515 192 500 146 q 530 302 530 237 q 515 398 530 357 q 473 466 500 439 q 406 506 445 493 q 319 519 368 519 q 257 517 283 519 q 211 510 231 514 q 176 500 191 505 q 149 489 161 494 l 115 498 l 160 990 l 624 990 l 631 781 l 572 781 l 567 822 q 561 847 565 837 q 549 865 557 858 q 527 876 541 872 q 492 879 513 879 l 222 879 l 196 574 q 257 589 217 581 q 358 596 296 596 q 483 578 425 596 q 584 523 541 559 q 651 431 627 486 q 675 302 675 376 q 652 174 675 232 q 586 74 629 115 q 481 9 543 32 q 339 -14 418 -14 q 211 0 262 -14 q 131 33 161 13 q 89 78 101 54 q 77 126 77 103 q 98 186 77 165 q 164 208 119 208 q 175 153 164 178 q 206 108 185 127 q 258 79 227 90 q 332 68 290 68 z "},"6":{"ha":777,"x_min":85,"x_max":705,"o":"m 447 939 q 289 836 342 939 q 228 530 235 733 q 266 558 245 545 q 311 581 286 571 q 364 597 335 591 q 427 603 393 603 q 542 583 490 603 q 630 527 593 564 q 686 437 666 490 q 705 318 705 385 q 685 184 705 245 q 627 79 665 123 q 533 11 589 35 q 407 -14 478 -14 q 279 15 338 -14 q 177 106 220 44 q 109 266 134 168 q 85 500 85 363 q 95 629 85 566 q 124 748 104 692 q 174 852 144 804 q 244 933 203 899 q 335 987 284 968 q 447 1006 386 1006 q 548 994 505 1006 q 620 961 591 981 q 662 914 648 941 q 676 860 676 888 q 649 798 676 820 q 570 777 622 777 q 563 840 570 810 q 542 891 557 869 q 504 926 527 913 q 447 939 481 939 m 399 532 q 347 525 372 532 q 299 506 321 517 q 259 480 277 495 q 227 452 241 466 q 241 273 228 347 q 278 153 254 199 q 336 84 302 106 q 411 62 370 62 q 525 120 486 62 q 564 304 564 178 q 521 477 564 423 q 399 532 479 532 z "},"7":{"ha":777,"x_min":82,"x_max":710,"o":"m 264 0 l 591 879 l 227 879 q 146 808 152 879 l 140 739 l 82 739 l 89 990 l 710 990 l 710 950 l 368 0 l 264 0 z "},"8":{"ha":777,"x_min":64,"x_max":713,"o":"m 64 249 q 80 337 64 299 q 124 404 96 374 q 191 457 153 433 q 275 503 230 481 q 203 551 236 525 q 146 608 170 577 q 109 676 122 640 q 96 757 96 713 q 113 850 96 805 q 165 929 130 895 q 259 985 201 964 q 396 1006 316 1006 q 512 988 461 1006 q 598 938 563 970 q 651 862 633 906 q 669 766 669 819 q 656 686 669 721 q 618 624 642 652 q 559 575 593 597 q 482 532 524 553 q 576 479 534 507 q 649 419 618 452 q 696 349 680 387 q 713 265 713 311 q 689 148 713 199 q 622 60 665 96 q 517 5 578 24 q 379 -14 455 -14 q 242 7 301 -14 q 143 63 183 27 q 84 146 104 98 q 64 249 64 194 m 386 50 q 468 64 431 50 q 531 102 505 78 q 572 161 557 127 q 586 235 586 195 q 573 300 586 270 q 531 358 560 330 q 455 413 502 387 q 342 469 409 440 q 237 378 276 434 q 199 243 199 321 q 211 164 199 199 q 246 103 222 129 q 304 64 269 78 q 386 50 340 50 m 546 770 q 537 832 546 802 q 510 887 529 863 q 461 925 492 911 q 387 940 431 940 q 318 927 349 940 q 268 893 288 915 q 237 840 248 871 q 227 774 227 810 q 238 707 227 736 q 274 652 250 677 q 332 607 297 628 q 414 564 368 585 q 478 604 453 583 q 519 649 504 625 q 540 704 534 674 q 546 770 546 733 z "},"9":{"ha":777,"x_min":71,"x_max":692,"o":"m 317 61 q 487 164 432 61 q 549 476 542 267 q 514 441 534 458 q 468 411 494 424 q 412 390 443 397 q 345 382 381 382 q 234 399 284 382 q 147 452 183 417 q 91 541 111 488 q 71 664 71 593 q 91 802 71 739 q 150 910 111 865 q 243 980 188 955 q 368 1006 298 1006 q 498 979 439 1006 q 600 895 557 951 q 668 749 644 838 q 692 539 692 661 q 683 397 692 467 q 654 266 673 328 q 605 153 635 204 q 533 63 574 101 q 437 5 491 26 q 315 -16 382 -16 q 217 -5 256 -16 q 156 22 178 5 q 123 61 133 39 q 114 104 114 83 q 127 148 114 130 q 155 171 140 165 q 179 129 165 149 q 213 94 193 109 q 258 70 233 79 q 317 61 284 61 m 375 464 q 437 474 409 465 q 487 498 465 483 q 525 534 509 513 q 550 576 541 554 l 550 579 q 535 737 549 671 q 498 846 522 803 q 441 909 474 888 q 368 929 408 929 q 254 865 294 929 q 214 677 214 800 q 224 580 214 621 q 254 513 234 539 q 305 476 275 488 q 375 464 335 464 z "}," ":{"ha":361,"x_min":0,"x_max":0,"o":""},"!":{"ha":463,"x_min":143,"x_max":318,"o":"m 150 991 l 311 991 l 262 279 l 199 279 l 150 991 m 143 85 q 150 130 143 112 q 169 159 157 148 q 196 174 180 170 q 231 179 212 179 q 264 174 248 179 q 292 159 280 170 q 311 130 304 148 q 318 85 318 112 q 311 40 318 58 q 292 11 304 22 q 264 -5 280 0 q 231 -9 248 -9 q 196 -5 212 -9 q 169 11 180 0 q 150 40 157 22 q 143 85 143 58 z "},"\"":{"ha":567,"x_min":79,"x_max":488,"o":"m 340 991 l 488 991 l 446 665 l 382 665 l 340 991 m 79 991 l 227 991 l 184 665 l 121 665 l 79 991 z "},"#":{"ha":777,"x_min":56,"x_max":721,"o":"m 269 364 l 463 364 l 514 636 l 321 636 l 269 364 m 704 364 l 704 282 l 529 282 l 476 0 l 393 0 l 446 282 l 253 282 l 200 0 l 117 0 l 170 282 l 56 282 l 56 364 l 184 364 l 237 636 l 72 636 l 72 718 l 253 718 l 302 991 l 387 991 l 336 718 l 529 718 l 581 991 l 664 991 l 612 718 l 721 718 l 721 636 l 597 636 l 546 364 l 704 364 z "},"$":{"ha":777,"x_min":92,"x_max":679,"o":"m 421 950 q 527 936 484 949 q 599 903 571 924 q 639 854 627 882 q 652 794 652 827 q 622 727 652 749 q 542 704 592 704 q 537 765 542 734 q 518 822 532 796 q 481 865 505 847 q 421 886 458 882 l 421 562 q 532 508 484 535 q 612 449 580 481 q 662 379 645 418 q 679 292 679 341 q 612 129 679 187 q 421 58 545 71 l 421 -110 l 351 -110 l 351 56 q 281 59 317 56 q 213 69 246 62 q 148 87 179 76 q 92 113 117 98 l 92 326 l 150 326 q 164 251 150 288 q 206 186 179 215 q 270 139 233 157 q 351 117 307 120 l 351 460 q 241 517 286 489 q 168 577 196 546 q 128 646 140 609 q 115 728 115 682 q 132 812 115 774 q 179 879 149 850 q 253 924 210 907 q 351 947 297 941 l 351 1055 l 421 1055 l 421 950 m 551 271 q 545 320 551 298 q 522 361 538 342 q 482 397 507 380 q 421 429 457 413 l 421 121 q 517 171 484 132 q 551 271 551 211 m 240 739 q 247 688 240 710 q 269 649 254 666 q 303 618 283 632 q 351 593 324 605 l 351 884 q 303 864 324 878 q 268 832 282 851 q 247 790 254 814 q 240 739 240 766 z "},"%":{"ha":1244,"x_min":62,"x_max":1182,"o":"m 518 699 q 504 572 518 629 q 461 474 490 515 q 390 411 433 433 q 290 389 347 389 q 188 411 231 389 q 117 474 144 433 q 76 572 89 515 q 62 699 62 629 q 76 825 62 768 q 117 922 89 882 q 188 984 144 962 q 292 1006 231 1006 q 391 984 349 1006 q 461 922 433 962 q 504 825 490 882 q 518 699 518 768 m 187 699 q 193 592 187 639 q 210 512 198 545 q 242 463 222 479 q 290 446 262 446 q 338 463 319 446 q 370 512 358 479 q 387 592 382 545 q 392 699 392 639 q 387 804 392 758 q 370 882 382 850 q 339 931 358 914 q 292 947 320 947 q 243 931 263 947 q 211 882 223 914 q 193 804 198 850 q 187 699 187 758 m 1182 296 q 1168 169 1182 226 q 1125 71 1154 112 q 1054 8 1097 31 q 954 -14 1011 -14 q 851 8 895 -14 q 780 71 808 31 q 740 169 753 112 q 726 296 726 226 q 740 422 726 366 q 781 519 753 479 q 852 581 808 559 q 956 603 895 603 q 1055 581 1013 603 q 1125 519 1097 559 q 1168 422 1154 479 q 1182 296 1182 366 m 851 296 q 857 189 851 236 q 874 109 862 142 q 906 60 886 77 q 954 43 926 43 q 1002 60 983 43 q 1034 109 1022 77 q 1050 189 1045 142 q 1055 296 1055 236 q 1050 401 1055 355 q 1034 479 1045 447 q 1003 528 1022 511 q 956 545 984 545 q 907 528 927 545 q 874 479 887 511 q 857 401 862 447 q 851 296 851 355 m 418 0 l 326 0 l 822 991 l 913 991 l 418 0 z "},"&":{"ha":1031,"x_min":50,"x_max":1018,"o":"m 796 0 l 681 122 q 626 69 656 94 q 559 26 595 44 q 478 -3 522 7 q 380 -14 433 -14 q 235 7 297 -14 q 132 67 173 28 q 71 159 91 105 q 50 278 50 212 q 66 381 50 337 q 111 458 82 425 q 181 516 140 491 q 272 562 222 541 q 225 622 245 593 q 192 680 205 651 q 172 738 179 708 q 165 802 165 768 q 180 885 165 848 q 227 949 195 922 q 309 991 259 977 q 428 1006 359 1006 q 541 990 494 1006 q 617 947 588 975 q 660 884 647 920 q 673 808 673 848 q 661 729 673 764 q 620 665 648 694 q 547 610 591 636 q 439 557 503 584 l 692 289 q 707 352 701 320 q 717 415 713 385 q 722 476 721 446 q 724 530 724 505 l 724 585 l 974 585 l 974 526 l 961 526 q 916 524 938 526 q 874 511 893 521 q 839 483 854 501 q 815 432 824 464 q 787 335 803 387 q 747 231 771 283 l 876 93 q 897 76 886 83 q 923 65 908 69 q 957 60 937 61 q 1006 58 977 58 l 1018 58 l 1018 0 l 796 0 m 393 64 q 469 72 434 64 q 533 96 504 81 q 587 131 562 111 q 631 176 611 152 l 323 505 q 266 466 292 488 q 223 417 241 445 q 195 353 205 389 q 186 273 186 318 q 201 183 186 222 q 243 118 216 144 q 309 77 271 91 q 393 64 347 64 m 551 807 q 545 859 551 835 q 523 900 538 882 q 483 927 507 917 q 422 937 458 937 q 328 901 361 937 q 294 806 294 865 q 300 756 294 779 q 317 710 305 733 q 347 663 329 688 q 392 610 366 639 q 463 647 433 627 q 513 690 493 667 q 542 742 532 713 q 551 807 551 770 z "},"'":{"ha":306,"x_min":79,"x_max":227,"o":"m 79 991 l 227 991 l 184 665 l 121 665 l 79 991 z "},"(":{"ha":481,"x_min":79,"x_max":436,"o":"m 224 440 q 230 277 224 357 q 258 124 237 196 q 322 -9 280 52 q 436 -114 365 -71 l 436 -178 q 273 -85 340 -140 q 162 44 205 -31 q 99 217 119 119 q 79 440 79 315 q 99 663 79 566 q 162 835 119 760 q 273 963 205 909 q 436 1055 340 1017 l 436 993 q 322 889 365 949 q 258 756 280 828 q 230 604 237 684 q 224 440 224 523 z "},")":{"ha":481,"x_min":45,"x_max":401,"o":"m 257 440 q 251 604 257 523 q 222 756 244 684 q 158 889 200 828 q 45 993 116 949 l 45 1055 q 208 963 140 1017 q 319 835 276 909 q 381 663 361 760 q 401 440 401 566 q 381 217 401 315 q 319 44 361 119 q 208 -85 276 -31 q 45 -178 140 -140 l 45 -114 q 158 -9 116 -71 q 222 124 200 52 q 251 277 244 196 q 257 440 257 357 z "},"*":{"ha":694,"x_min":57,"x_max":629,"o":"m 57 860 l 106 970 l 319 835 l 283 1055 l 404 1055 l 366 836 l 581 966 l 629 859 l 395 790 l 629 722 l 581 615 l 366 745 l 404 525 l 283 525 l 318 745 l 106 612 l 57 721 l 290 790 l 57 860 z "},"+":{"ha":777,"x_min":90,"x_max":686,"o":"m 429 456 l 429 199 l 346 199 l 346 456 l 90 456 l 90 538 l 346 538 l 346 794 l 429 794 l 429 538 l 686 538 l 686 456 l 429 456 z "},",":{"ha":347,"x_min":41,"x_max":269,"o":"m 269 58 q 257 -27 269 14 q 217 -104 245 -68 q 147 -167 190 -139 q 41 -214 104 -195 l 41 -155 q 142 -102 110 -134 q 174 -31 174 -71 q 166 -8 174 -17 q 147 8 159 1 q 123 22 136 16 q 98 39 110 29 q 79 62 87 48 q 72 97 72 76 q 98 158 72 137 q 163 179 124 179 q 203 171 184 179 q 237 148 222 163 q 261 110 252 133 q 269 58 269 87 z "},"-":{"ha":431,"x_min":35,"x_max":396,"o":"m 35 326 l 35 431 l 396 431 l 396 326 l 35 326 z "},".":{"ha":397,"x_min":111,"x_max":286,"o":"m 111 85 q 118 130 111 112 q 137 159 125 148 q 164 174 149 170 q 199 179 180 179 q 232 174 216 179 q 260 159 248 170 q 279 130 272 148 q 286 85 286 112 q 279 40 286 58 q 260 11 272 22 q 232 -5 248 0 q 199 -9 216 -9 q 164 -5 180 -9 q 137 11 149 0 q 118 40 125 22 q 111 85 111 58 z "},"/":{"ha":400,"x_min":0,"x_max":400,"o":"m 82 -168 l 0 -168 l 319 1055 l 400 1055 l 82 -168 z "},":":{"ha":399,"x_min":113,"x_max":288,"o":"m 113 85 q 119 130 113 112 q 138 159 126 148 q 166 174 150 170 q 200 179 182 179 q 234 174 218 179 q 261 159 250 170 q 280 130 273 148 q 288 85 288 112 q 280 40 288 58 q 261 11 273 22 q 234 -5 250 0 q 200 -9 218 -9 q 166 -5 182 -9 q 138 11 150 0 q 119 40 126 22 q 113 85 113 58 m 113 657 q 119 702 113 684 q 138 731 126 720 q 166 747 150 742 q 200 751 182 751 q 234 747 218 751 q 261 731 250 742 q 280 702 273 720 q 288 657 288 684 q 280 612 288 631 q 261 583 273 594 q 234 567 250 572 q 200 562 218 562 q 166 567 182 562 q 138 583 150 572 q 119 612 126 594 q 113 657 113 631 z "},";":{"ha":347,"x_min":41,"x_max":269,"o":"m 269 58 q 257 -27 269 14 q 217 -104 245 -68 q 147 -167 190 -139 q 41 -214 104 -195 l 41 -155 q 142 -102 110 -134 q 174 -31 174 -71 q 166 -8 174 -17 q 147 8 159 1 q 123 22 136 16 q 98 39 110 29 q 79 62 87 48 q 72 97 72 76 q 98 158 72 137 q 163 179 124 179 q 203 171 184 179 q 237 148 222 163 q 261 110 252 133 q 269 58 269 87 m 87 657 q 94 702 87 684 q 113 731 101 720 q 141 747 125 742 q 175 751 157 751 q 209 747 193 751 q 236 731 224 742 q 255 702 248 720 q 262 657 262 684 q 255 612 262 631 q 236 583 248 594 q 209 567 224 572 q 175 562 193 562 q 141 567 157 562 q 113 583 125 572 q 94 612 101 594 q 87 657 87 631 z "},"<":{"ha":777,"x_min":90,"x_max":686,"o":"m 90 472 l 90 521 l 686 842 l 686 749 l 220 496 l 686 245 l 686 153 l 90 472 z "},"=":{"ha":777,"x_min":90,"x_max":686,"o":"m 686 400 l 686 318 l 90 318 l 90 400 l 686 400 m 686 673 l 686 591 l 90 591 l 90 673 l 686 673 z "},">":{"ha":777,"x_min":90,"x_max":686,"o":"m 90 153 l 90 245 l 557 496 l 90 749 l 90 842 l 686 521 l 686 472 l 90 153 z "},"?":{"ha":694,"x_min":60,"x_max":624,"o":"m 354 279 l 269 279 l 269 490 q 371 547 330 515 q 436 617 412 579 q 472 695 461 654 q 482 778 482 736 q 473 843 482 814 q 446 893 465 873 q 399 926 428 914 q 330 937 370 937 q 257 923 287 937 q 210 884 228 909 q 183 828 191 860 q 175 760 175 795 q 129 765 150 760 q 93 782 108 771 q 68 810 77 793 q 60 850 60 827 q 75 911 60 883 q 122 961 90 940 q 203 994 155 982 q 319 1006 252 1006 q 441 989 385 1006 q 537 940 496 972 q 601 861 578 907 q 624 754 624 814 q 606 650 624 697 q 553 565 588 604 q 469 494 519 526 q 354 436 418 463 l 354 279 m 222 85 q 229 130 222 112 q 248 159 236 148 q 276 174 260 170 q 310 179 292 179 q 343 174 328 179 q 371 159 359 170 q 390 130 383 148 q 397 85 397 112 q 390 40 397 58 q 371 11 383 22 q 343 -5 359 0 q 310 -9 328 -9 q 276 -5 292 -9 q 248 11 260 0 q 229 40 236 22 q 222 85 222 58 z "},"@":{"ha":1279,"x_min":90,"x_max":1206,"o":"m 1206 545 q 1181 363 1206 444 q 1118 225 1157 282 q 1030 138 1078 168 q 933 107 981 107 q 830 140 871 107 q 770 233 789 174 l 762 233 q 730 183 748 206 q 689 143 712 160 q 638 117 667 126 q 575 107 610 107 q 495 121 533 107 q 428 165 456 136 q 381 239 399 194 q 364 345 364 283 q 373 425 364 382 q 399 512 381 469 q 445 595 417 555 q 513 666 473 635 q 603 716 552 697 q 718 734 654 734 q 795 722 763 734 q 848 693 827 710 l 904 722 l 937 722 l 867 368 q 862 336 865 352 q 859 306 860 322 q 857 275 857 290 q 864 233 857 251 q 883 203 871 215 q 910 186 895 191 q 942 180 925 180 q 1004 205 972 180 q 1062 276 1036 229 q 1104 392 1088 323 q 1121 549 1121 460 q 1092 709 1121 640 q 1011 826 1063 779 q 887 897 959 873 q 728 921 814 921 q 594 902 660 921 q 471 846 529 883 q 362 756 412 809 q 277 634 313 703 q 220 484 241 566 q 200 306 200 401 q 233 108 200 190 q 323 -25 267 26 q 455 -101 380 -77 q 614 -125 530 -125 q 722 -115 671 -125 q 817 -89 772 -105 q 899 -52 861 -73 q 966 -9 937 -31 l 999 -60 q 922 -110 964 -85 q 829 -154 879 -135 q 722 -185 779 -174 q 600 -197 665 -197 q 395 -166 488 -197 q 234 -73 301 -136 q 128 83 166 -11 q 90 302 90 176 q 112 490 90 401 q 173 656 133 579 q 271 794 214 732 q 400 900 328 857 q 556 968 472 944 q 736 991 641 991 q 941 957 852 991 q 1088 862 1029 922 q 1176 721 1147 802 q 1206 545 1206 639 m 493 325 q 523 216 493 252 q 599 180 552 180 q 660 196 634 180 q 703 235 686 211 q 732 291 721 260 q 749 354 743 322 l 802 636 q 771 667 793 656 q 724 677 749 677 q 649 660 682 677 q 590 612 615 642 q 546 546 564 583 q 516 469 528 508 q 498 392 504 429 q 493 325 493 355 z "},"{":{"ha":595,"x_min":69,"x_max":525,"o":"m 433 -178 q 347 -163 385 -178 q 284 -123 309 -149 q 246 -61 259 -98 q 233 22 233 -24 l 233 264 q 221 334 233 307 q 186 379 208 362 q 134 402 163 395 q 69 411 104 410 l 69 469 q 134 477 104 471 q 186 501 163 484 q 221 545 208 517 q 233 615 233 573 l 233 857 q 284 1004 233 952 q 433 1055 334 1055 l 525 1055 l 525 996 l 484 996 q 396 959 422 996 q 370 850 370 922 l 370 612 q 331 499 370 545 q 215 441 293 454 l 215 440 q 332 382 295 427 q 370 268 370 337 l 370 28 q 396 -81 370 -43 q 484 -118 422 -118 l 525 -118 l 525 -178 l 433 -178 z "},"|":{"ha":777,"x_min":346,"x_max":429,"o":"m 429 -334 l 346 -334 l 346 1055 l 429 1055 l 429 -334 z "},"}":{"ha":595,"x_min":69,"x_max":525,"o":"m 69 -118 l 111 -118 q 199 -81 173 -118 q 225 28 225 -43 l 225 268 q 262 382 225 337 q 379 440 299 427 l 379 441 q 263 499 302 454 q 225 612 225 545 l 225 850 q 199 959 225 922 q 111 996 173 996 l 69 996 l 69 1055 l 161 1055 q 310 1004 260 1055 q 361 857 361 952 l 361 615 q 374 545 361 573 q 409 501 387 517 q 460 477 431 484 q 525 469 490 471 l 525 411 q 460 402 490 410 q 409 379 431 395 q 374 334 387 362 q 361 264 361 307 l 361 22 q 348 -61 361 -24 q 310 -123 335 -98 q 248 -163 285 -149 q 161 -178 210 -178 l 69 -178 l 69 -118 z "},"~":{"ha":779,"x_min":77,"x_max":701,"o":"m 526 374 q 484 382 506 374 q 441 404 463 391 q 400 432 420 416 q 366 461 381 447 q 335 489 350 475 q 306 512 320 502 q 276 528 291 522 q 245 534 261 534 q 185 495 205 534 q 158 374 165 456 l 77 374 q 89 460 81 417 q 117 538 98 504 q 168 595 136 573 q 252 616 200 616 q 298 608 275 616 q 342 585 321 599 q 384 555 364 572 q 419 525 403 539 q 448 499 434 511 q 476 477 463 486 q 505 461 490 467 q 533 456 519 456 q 590 497 572 456 q 618 616 608 539 l 701 616 q 687 530 696 573 q 658 452 677 486 q 607 395 639 417 q 526 374 576 374 z "},"​":{"ha":0,"x_min":0,"x_max":0,"o":""},"«":{"ha":714,"x_min":90,"x_max":624,"o":"m 90 397 l 302 639 l 372 639 l 232 375 l 372 111 l 302 111 l 90 353 l 90 397 m 342 397 l 554 639 l 624 639 l 484 375 l 624 111 l 554 111 l 342 353 l 342 397 z "},"­":{"ha":431,"x_min":35,"x_max":396,"o":"m 35 326 l 35 431 l 396 431 l 396 326 l 35 326 z "},"»":{"ha":714,"x_min":90,"x_max":624,"o":"m 624 353 l 411 111 l 342 111 l 482 375 l 342 639 l 411 639 l 624 397 l 624 353 m 372 353 l 160 111 l 90 111 l 231 375 l 90 639 l 160 639 l 372 397 l 372 353 z "},"ក":{"ha":983,"x_min":122,"x_max":882,"o":"m 814 0 l 686 0 l 686 509 q 633 581 686 548 q 509 614 581 614 l 475 614 q 350 581 403 614 q 297 509 297 548 l 297 0 l 170 0 l 170 509 q 254 644 170 576 q 475 712 339 712 l 509 712 q 729 644 644 712 q 814 509 814 576 l 814 0 m 229 656 q 122 764 122 697 l 122 815 q 166 892 122 850 l 211 933 q 321 1017 300 1017 q 420 941 347 1017 l 456 903 q 495 884 475 884 q 530 903 512 884 l 564 941 q 656 1017 632 1017 q 719 975 680 1017 l 799 890 q 847 865 823 865 q 882 878 865 865 q 790 764 834 764 q 720 791 744 764 l 667 846 q 617 873 640 873 q 549 819 588 873 q 475 764 509 764 q 368 819 426 764 l 338 846 q 283 873 309 873 q 239 848 254 873 q 224 799 224 823 q 317 718 224 765 l 229 656 z "},"ខ":{"ha":983,"x_min":170,"x_max":814,"o":"m 297 695 l 297 644 q 330 678 330 644 q 321 691 330 686 q 297 695 313 695 m 492 539 q 686 712 686 640 l 686 814 q 633 886 686 853 q 509 920 581 920 l 475 920 q 350 886 403 920 q 297 814 297 853 l 297 763 q 372 742 347 763 q 397 678 397 720 q 297 576 397 576 q 170 644 170 576 l 170 814 q 254 949 170 882 q 475 1017 339 1017 l 509 1017 q 729 949 644 1017 q 814 814 814 882 l 814 712 q 555 462 814 595 l 297 329 l 297 203 q 350 131 297 164 q 475 98 403 98 l 509 98 q 633 131 581 98 q 686 203 686 164 l 686 407 l 814 475 l 814 203 q 729 68 814 136 q 509 0 644 0 l 475 0 q 254 68 339 0 q 170 203 170 136 l 170 373 l 492 539 z "},"គ":{"ha":983,"x_min":122,"x_max":882,"o":"m 229 656 q 122 764 122 697 l 122 815 q 166 892 122 850 l 211 933 q 321 1017 300 1017 q 420 941 347 1017 l 456 903 q 495 884 475 884 q 530 903 512 884 l 564 941 q 656 1017 632 1017 q 719 975 680 1017 l 799 890 q 847 865 823 865 q 882 878 865 865 q 790 764 834 764 q 720 791 744 764 l 667 846 q 617 873 640 873 q 549 819 588 873 q 475 764 509 764 q 368 819 426 764 l 338 846 q 283 873 309 873 q 239 848 254 873 q 224 799 224 823 q 317 718 224 765 l 229 656 m 297 45 l 283 0 l 170 0 l 170 509 q 254 644 170 576 q 475 712 339 712 l 509 712 q 729 644 644 712 q 814 509 814 576 l 814 0 l 686 0 l 686 509 q 633 581 686 548 q 509 614 581 614 l 475 614 q 350 581 403 614 q 297 509 297 548 l 297 203 l 328 252 q 449 339 381 339 q 543 258 543 339 q 490 203 543 203 q 452 226 452 203 q 435 248 452 248 q 385 192 419 248 l 352 136 l 297 45 z "},"ឃ":{"ha":1449,"x_min":68,"x_max":1381,"o":"m 186 859 q 153 804 153 825 q 163 779 153 787 q 186 772 173 772 l 186 859 m 186 678 q 94 712 119 678 q 68 783 68 746 q 83 855 68 822 q 142 954 98 889 q 230 1017 186 1017 q 314 949 314 1017 l 314 203 q 367 131 314 164 q 492 98 420 98 q 616 131 564 98 q 669 203 669 164 l 669 673 l 610 709 q 551 767 551 745 q 589 846 551 788 l 703 1017 l 776 975 l 812 954 q 867 935 844 935 q 874 936 871 935 l 899 939 q 871 872 899 916 q 815 825 843 829 q 806 824 811 824 q 742 847 781 824 l 696 873 l 667 823 l 797 746 l 797 203 q 850 131 797 164 q 975 98 903 98 q 1099 131 1046 98 q 1152 203 1152 164 l 1152 673 l 1093 709 q 1034 767 1034 745 q 1072 846 1034 788 l 1185 1017 l 1259 975 l 1295 954 q 1350 935 1327 935 q 1357 936 1354 935 l 1381 939 q 1354 872 1381 916 q 1298 825 1326 829 q 1289 824 1294 824 q 1225 847 1263 824 l 1179 873 l 1149 823 l 1280 746 l 1280 203 q 1195 68 1280 136 q 975 0 1110 0 q 754 68 839 0 q 733 86 743 77 q 712 68 724 77 q 492 0 627 0 q 271 68 356 0 q 186 203 186 136 l 186 678 z "},"ង":{"ha":983,"x_min":68,"x_max":814,"o":"m 170 433 l 170 499 q 142 465 142 486 q 149 441 142 448 q 170 433 156 433 m 631 895 q 597 926 631 926 q 563 895 563 926 q 602 846 563 872 q 631 895 631 863 m 297 126 l 492 287 l 686 126 l 686 610 q 656 706 686 683 q 602 739 627 722 q 393 678 506 678 q 230 725 286 678 q 170 854 170 776 q 186 944 170 899 q 203 1038 203 990 q 136 1085 203 1085 q 203 1153 136 1153 q 331 1038 331 1153 q 314 941 331 980 q 297 854 297 902 q 325 792 297 808 q 393 776 353 776 q 520 795 471 776 q 468 895 468 844 q 597 1017 468 1017 q 726 895 726 1017 q 673 795 726 843 q 702 780 687 787 q 814 610 814 720 l 814 0 l 686 0 l 492 160 l 297 0 l 170 0 l 170 339 q 92 373 115 339 q 68 444 68 407 q 81 513 68 483 q 132 577 94 543 q 233 610 170 610 q 297 543 297 610 l 297 126 z "},"ច":{"ha":983,"x_min":102,"x_max":882,"o":"m 686 501 l 686 567 q 659 532 659 553 q 666 509 659 515 q 686 501 673 501 m 297 203 q 350 131 297 164 q 475 98 403 98 l 509 98 q 633 131 581 98 q 686 203 686 164 l 686 407 q 608 441 632 407 q 585 512 585 475 q 598 581 585 551 q 649 645 611 611 q 750 678 686 678 q 814 610 814 678 l 814 203 q 729 68 814 136 q 509 0 644 0 l 475 0 q 254 68 339 0 q 170 203 170 136 l 170 685 q 112 747 122 730 q 102 790 102 764 q 112 833 102 815 q 167 892 122 850 l 211 934 q 321 1017 300 1017 q 420 941 347 1017 l 456 903 q 495 884 475 884 q 530 903 512 884 l 564 941 q 656 1017 632 1017 q 719 975 680 1017 l 799 890 q 847 865 823 865 q 882 878 865 865 q 790 764 834 764 q 720 791 744 764 l 667 846 q 617 873 640 873 q 549 819 588 873 q 475 764 509 764 q 368 819 426 764 l 338 846 q 283 873 309 873 q 254 859 267 873 l 228 829 q 222 816 222 823 q 235 791 222 805 l 256 769 l 297 724 l 297 203 z "},"ឆ":{"ha":983,"x_min":68,"x_max":882,"o":"m 686 501 l 686 567 q 659 532 659 553 q 666 509 659 515 q 686 501 673 501 m 170 248 q 149 241 156 248 q 142 214 142 234 q 170 159 142 193 l 170 248 m 297 339 q 505 170 505 339 q 610 98 505 98 q 686 170 686 98 l 686 407 q 608 441 632 407 q 585 512 585 475 q 598 581 585 551 q 649 645 611 611 q 750 678 686 678 q 814 610 814 678 l 814 170 q 610 0 814 0 q 407 170 407 0 q 297 248 407 248 l 297 0 l 170 0 l 119 84 q 68 234 68 168 q 95 309 68 278 q 170 339 122 339 l 170 685 q 112 747 122 730 q 102 790 102 764 q 112 833 102 815 q 167 892 122 850 l 211 934 q 321 1017 300 1017 q 420 941 347 1017 l 456 903 q 495 884 475 884 q 530 903 512 884 l 564 941 q 656 1017 632 1017 q 719 975 680 1017 l 799 890 q 847 865 823 865 q 882 878 865 865 q 790 764 834 764 q 720 791 744 764 l 667 846 q 617 873 640 873 q 549 819 588 873 q 475 764 509 764 q 368 819 426 764 l 338 846 q 283 873 309 873 q 254 859 267 873 l 228 829 q 222 816 222 823 q 235 791 222 805 l 256 769 l 297 724 l 297 339 z "},"ជ":{"ha":983,"x_min":102,"x_max":814,"o":"m 297 126 l 492 287 l 686 126 l 686 678 l 814 678 l 814 0 l 686 0 l 492 160 l 297 0 l 170 0 l 170 685 q 112 747 122 730 q 102 790 102 764 q 112 833 102 815 q 166 892 122 850 l 211 933 q 319 1017 300 1017 q 442 941 339 1017 q 604 868 548 868 q 694 892 666 868 q 723 963 723 916 q 624 1032 723 1032 q 556 1093 556 1032 q 624 1153 556 1153 q 763 1098 712 1153 q 814 963 814 1043 q 756 815 814 867 q 604 764 698 764 q 381 830 474 764 l 338 861 q 296 879 314 879 q 288 878 292 879 q 245 848 267 873 l 230 831 q 223 816 223 824 q 235 791 223 804 l 256 769 l 297 724 l 297 126 z "},"ឈ":{"ha":1949,"x_min":95,"x_max":1881,"o":"m 297 151 q 363 264 363 212 q 345 304 363 291 q 297 316 327 316 l 297 151 m 297 407 q 425 367 395 407 q 454 281 454 326 q 427 170 454 229 q 349 55 400 110 l 297 0 l 170 0 l 170 684 l 127 709 q 95 773 95 729 q 163 867 95 817 l 256 937 q 434 1017 365 1017 q 595 981 541 1017 l 741 880 q 814 712 814 831 l 814 203 q 867 131 814 164 q 991 98 920 98 q 1116 131 1063 98 q 1169 203 1169 164 l 1169 673 l 1110 709 q 1050 767 1050 745 q 1088 846 1050 788 l 1202 1017 l 1276 975 l 1312 954 q 1367 935 1344 935 q 1374 936 1371 935 l 1398 939 q 1371 872 1398 916 q 1315 825 1343 829 q 1306 824 1311 824 q 1242 847 1280 824 l 1196 873 l 1166 823 l 1297 746 l 1297 203 q 1350 131 1297 164 q 1474 98 1402 98 q 1599 131 1546 98 q 1652 203 1652 164 l 1652 673 l 1593 709 q 1533 767 1533 745 q 1571 846 1533 788 l 1685 1017 l 1758 975 l 1795 954 q 1849 935 1827 935 q 1857 936 1853 935 l 1881 939 q 1853 872 1881 916 q 1798 825 1826 829 q 1789 824 1794 824 q 1725 847 1763 824 l 1678 873 l 1649 823 l 1780 746 l 1780 203 q 1695 68 1780 136 q 1474 0 1610 0 q 1254 68 1339 0 q 1233 86 1242 77 q 1212 68 1223 77 q 991 0 1127 0 q 771 68 856 0 q 686 203 686 136 l 686 712 q 660 783 686 764 l 519 879 q 434 897 494 897 q 317 862 363 897 l 230 795 l 256 779 q 297 712 297 753 l 297 407 z "},"ញ":{"ha":1466,"x_min":102,"x_max":1297,"o":"m 297 151 q 363 264 363 212 q 345 304 363 291 q 297 316 327 316 l 297 151 m 814 0 l 686 0 l 686 793 q 663 859 686 844 l 617 886 q 602 890 610 890 q 570 871 586 890 l 532 831 q 455 790 494 790 q 364 824 401 791 l 315 870 q 284 886 298 886 q 268 880 275 886 l 238 854 q 234 844 234 850 q 297 769 234 821 l 297 407 q 425 367 395 407 q 454 281 454 326 q 427 170 454 229 q 349 55 400 110 l 297 0 l 170 0 l 170 720 q 102 822 102 793 q 192 935 102 851 q 313 1017 281 1017 q 410 958 345 1017 l 460 909 q 469 905 464 905 q 503 927 483 905 l 531 958 q 623 1017 587 1017 q 689 991 648 1017 l 731 965 q 776 924 758 948 q 791 939 783 932 q 991 1017 876 1017 q 1212 939 1127 1017 q 1297 780 1297 861 l 1297 0 l 1169 0 l 1169 780 q 1116 876 1169 833 q 991 920 1063 920 q 870 876 926 920 q 814 780 814 833 l 814 0 m 1095 -136 q 1116 -85 1095 -102 q 1179 -68 1137 -68 q 1267 -102 1238 -68 q 1297 -203 1297 -136 q 1224 -356 1297 -305 q 1034 -407 1152 -407 q 866 -381 943 -407 q 709 -296 791 -356 q 545 -203 629 -237 q 402 -170 461 -170 q 280 -184 340 -170 q 170 -231 220 -200 q 194 -161 170 -190 q 277 -100 220 -132 q 429 -68 334 -68 q 624 -100 537 -68 q 801 -197 711 -132 q 941 -290 890 -263 q 1048 -316 992 -316 q 1132 -294 1095 -316 q 1169 -203 1169 -271 q 1168 -185 1169 -193 q 1147 -191 1158 -191 q 1121 -183 1134 -191 q 1102 -163 1109 -176 q 1095 -136 1095 -150 z "},"ដ":{"ha":983,"x_min":170,"x_max":814,"o":"m 297 644 l 297 126 l 492 287 l 686 126 l 686 678 l 814 678 l 814 0 l 686 0 l 492 160 l 297 0 l 170 0 l 170 692 l 297 644 m 277 891 q 296 857 277 871 l 313 857 q 349 891 349 857 q 340 916 349 907 q 313 925 331 925 q 286 916 295 925 q 277 891 277 908 m 397 828 q 438 825 416 826 q 498 823 467 823 q 641 852 595 823 q 686 933 686 882 q 610 1032 686 1032 q 543 1099 543 1032 q 610 1153 543 1153 q 814 933 814 1153 q 735 793 814 860 q 498 726 656 726 q 430 727 462 726 l 365 730 q 235 774 300 734 q 170 888 170 814 q 205 981 170 945 q 302 1017 241 1017 q 398 988 363 1017 q 433 908 433 959 q 397 828 433 857 z "},"ឋ":{"ha":983,"x_min":68,"x_max":916,"o":"m 186 859 q 153 804 153 825 q 163 779 153 787 q 186 772 173 772 l 186 859 m 709 865 l 693 824 l 831 746 l 831 203 q 746 68 831 136 q 526 0 661 0 l 492 0 q 271 68 356 0 q 186 203 186 136 l 186 678 q 94 712 119 678 q 68 783 68 746 q 83 855 68 822 q 142 954 98 889 q 230 1017 186 1017 q 314 949 314 1017 l 314 203 q 367 131 314 164 q 492 98 420 98 l 526 98 q 650 131 597 98 q 703 203 703 164 l 703 673 l 644 709 q 585 767 585 745 q 689 1017 585 788 q 802 928 781 928 l 804 928 q 822 977 822 933 q 757 1046 822 1019 q 701 1102 701 1069 q 702 1113 701 1107 q 758 1153 712 1153 q 860 1112 804 1153 q 916 977 916 1072 q 882 852 916 887 q 817 818 847 818 q 709 865 787 818 z "},"ឌ":{"ha":983,"x_min":170,"x_max":814,"o":"m 321 691 q 297 695 313 695 l 297 644 q 330 678 330 644 q 321 691 330 686 m 297 763 q 372 742 347 763 q 397 678 397 720 q 297 576 397 576 q 170 644 170 576 l 170 814 q 248 957 170 897 q 370 1017 327 1017 q 492 926 405 1017 q 615 1017 579 1017 q 735 957 657 1017 q 814 814 814 897 l 814 712 q 555 462 814 595 l 297 329 l 297 170 q 313 116 297 134 q 357 98 330 98 q 432 126 397 98 q 584 241 534 212 q 686 271 634 271 l 686 395 l 814 456 l 814 34 q 709 -68 814 -68 q 639 -19 639 -68 q 686 41 686 3 l 686 180 q 622 159 654 180 q 504 69 590 138 q 357 0 418 0 q 220 39 270 0 q 170 170 170 79 l 170 373 l 492 539 q 686 712 686 640 l 686 814 q 635 892 686 857 q 609 901 623 901 q 492 813 563 901 q 374 901 421 901 q 348 892 360 901 q 297 814 297 857 l 297 763 z "},"ឍ":{"ha":1466,"x_min":102,"x_max":1398,"o":"m 297 151 q 363 264 363 212 q 345 304 363 291 q 297 316 327 316 l 297 151 m 686 248 q 666 241 673 248 q 659 214 659 234 q 686 159 659 193 l 686 248 m 686 793 q 663 859 686 844 l 617 886 q 602 890 610 890 q 570 871 586 890 l 532 831 q 455 790 494 790 q 364 824 401 791 l 315 870 q 284 886 298 886 q 268 880 275 886 l 238 854 q 234 844 234 850 q 297 769 234 821 l 297 407 q 425 367 395 407 q 454 281 454 326 q 427 170 454 229 q 349 55 400 110 l 297 0 l 170 0 l 170 720 q 102 822 102 793 q 192 935 102 851 q 313 1017 281 1017 q 410 958 345 1017 l 460 909 q 469 905 464 905 q 503 927 483 905 l 531 958 q 623 1017 587 1017 q 689 991 648 1017 l 731 965 q 814 793 814 913 l 814 339 q 1015 170 1015 339 q 1093 98 1015 98 q 1169 170 1169 98 l 1169 673 l 1110 709 q 1050 767 1050 745 q 1088 846 1050 788 l 1202 1017 l 1276 975 l 1312 954 q 1367 935 1344 935 q 1374 936 1371 935 l 1398 939 q 1371 872 1398 916 q 1315 825 1343 829 q 1306 824 1311 824 q 1242 847 1280 824 l 1196 873 l 1166 823 l 1297 746 l 1297 170 q 1093 0 1297 0 q 917 170 917 0 q 814 248 917 248 l 814 0 l 686 0 l 635 84 q 585 234 585 168 q 612 309 585 278 q 686 339 639 339 l 686 793 z "},"ណ":{"ha":1915,"x_min":95,"x_max":1746,"o":"m 297 151 q 363 264 363 212 q 345 304 363 291 q 297 316 327 316 l 297 151 m 652 779 l 551 825 l 532 834 l 517 841 l 435 879 q 376 897 397 897 q 288 859 338 897 q 221 802 237 821 l 256 779 q 297 712 297 753 l 297 407 q 425 367 395 407 q 454 281 454 326 q 427 170 454 229 q 349 55 400 110 l 297 0 l 170 0 l 170 684 l 127 709 q 95 773 95 729 q 151 867 95 817 l 236 942 q 383 1017 320 1017 q 488 995 439 1017 l 570 958 l 707 895 q 780 779 780 861 l 780 126 l 958 273 l 1135 126 l 1135 684 l 1093 709 q 1061 773 1061 729 q 1117 867 1061 817 l 1202 942 q 1349 1017 1286 1017 q 1454 995 1405 1017 l 1536 958 l 1672 895 q 1746 779 1746 861 l 1746 0 l 1618 0 l 1618 779 l 1517 825 l 1497 834 l 1483 841 l 1401 879 q 1341 897 1362 897 q 1253 859 1303 897 q 1187 802 1203 821 l 1221 779 q 1263 712 1263 753 l 1263 0 l 1135 0 l 958 146 l 780 0 l 652 0 l 652 779 z "},"ត":{"ha":983,"x_min":122,"x_max":882,"o":"m 122 764 l 122 815 q 166 892 122 850 l 211 933 q 321 1017 300 1017 q 420 941 347 1017 l 456 903 q 495 884 475 884 q 530 903 512 884 l 564 941 q 656 1017 632 1017 q 719 975 680 1017 l 799 890 q 847 865 823 865 q 882 878 865 865 q 790 764 834 764 q 720 791 744 764 l 667 846 q 617 873 640 873 q 549 819 588 873 q 475 764 509 764 q 368 819 426 764 l 338 846 q 283 873 309 873 q 239 848 254 873 q 224 799 224 823 q 317 718 224 765 l 229 656 q 122 764 122 697 m 297 159 q 331 214 331 193 q 321 238 331 231 q 297 245 311 245 l 297 159 m 170 509 q 254 644 170 576 q 475 712 339 712 l 509 712 q 729 644 644 712 q 814 509 814 576 l 814 0 l 686 0 l 686 509 q 633 581 686 548 q 509 614 581 614 l 475 614 q 350 581 403 614 q 297 509 297 548 l 297 339 q 390 305 365 339 q 416 234 416 271 q 401 162 416 195 q 342 64 386 128 l 297 0 l 170 0 l 170 509 z "},"ថ":{"ha":983,"x_min":102,"x_max":814,"o":"m 686 501 l 686 567 q 659 532 659 553 q 666 509 659 515 q 686 501 673 501 m 297 203 q 350 131 297 164 q 475 98 403 98 l 509 98 q 633 131 581 98 q 686 203 686 164 l 686 407 q 608 441 632 407 q 585 512 585 475 q 598 581 585 551 q 649 645 611 611 q 750 678 686 678 q 814 610 814 678 l 814 203 q 729 68 814 136 q 509 0 644 0 l 475 0 q 254 68 339 0 q 170 203 170 136 l 170 685 q 112 747 122 730 q 102 790 102 764 q 112 833 102 815 q 166 892 122 850 l 211 933 q 319 1017 300 1017 q 442 941 339 1017 q 604 868 548 868 q 694 892 666 868 q 723 963 723 916 q 624 1032 723 1032 q 556 1093 556 1032 q 624 1153 556 1153 q 763 1098 712 1153 q 814 963 814 1043 q 756 815 814 867 q 604 764 698 764 q 381 830 474 764 l 338 861 q 296 879 314 879 q 288 878 292 879 q 245 848 267 873 l 230 831 q 223 816 223 824 q 235 791 223 804 l 256 769 l 297 724 l 297 203 z "},"ទ":{"ha":983,"x_min":170,"x_max":814,"o":"m 707 481 q 684 455 684 481 q 726 469 726 455 q 707 481 726 481 m 669 742 q 661 729 661 737 q 686 709 661 709 l 686 746 q 669 742 677 746 m 170 814 q 254 949 170 882 q 475 1017 339 1017 l 509 1017 q 729 949 644 1017 q 814 814 814 882 l 814 709 q 686 641 814 641 q 593 729 593 641 q 618 792 593 771 q 686 814 643 814 q 633 886 686 853 q 509 920 581 920 l 475 920 q 350 886 403 920 q 297 814 297 853 l 297 641 q 351 505 297 555 q 492 455 404 455 l 556 455 q 592 526 556 489 q 707 564 627 564 q 784 542 753 564 q 814 469 814 519 q 783 389 814 411 q 684 367 753 367 l 684 205 q 630 51 684 102 q 475 0 577 0 q 324 43 382 0 q 266 170 266 86 l 266 305 l 387 305 l 387 170 q 410 119 387 141 q 475 98 434 98 q 530 124 505 98 q 556 204 556 150 l 556 367 l 492 367 q 257 444 345 367 q 170 641 170 521 l 170 814 z "},"ធ":{"ha":983,"x_min":102,"x_max":882,"o":"m 686 501 l 686 567 q 659 532 659 553 q 666 509 659 515 q 686 501 673 501 m 686 407 q 608 441 632 407 q 585 512 585 475 q 598 581 585 551 q 649 645 611 611 q 750 678 686 678 q 814 610 814 678 l 814 0 l 686 0 l 492 160 l 297 0 l 170 0 l 170 685 q 112 747 122 730 q 102 790 102 764 q 112 833 102 815 q 167 892 122 850 l 211 934 q 321 1017 300 1017 q 420 941 347 1017 l 456 903 q 495 884 475 884 q 530 903 512 884 l 564 941 q 656 1017 632 1017 q 719 975 680 1017 l 799 890 q 847 865 823 865 q 882 878 865 865 q 790 764 834 764 q 720 791 744 764 l 667 846 q 617 873 640 873 q 549 819 588 873 q 475 764 509 764 q 368 819 426 764 l 338 846 q 283 873 309 873 q 254 859 267 873 l 228 829 q 222 816 222 823 q 235 791 222 805 l 256 769 l 297 724 l 297 126 l 492 287 l 686 126 l 686 407 z "},"ន":{"ha":983,"x_min":170,"x_max":814,"o":"m 663 718 q 654 705 654 713 q 686 671 654 671 l 686 722 q 663 718 671 722 m 814 170 q 764 39 814 79 q 612 0 713 0 q 503 26 552 0 q 416 106 454 53 q 361 159 393 138 q 297 180 330 180 l 297 0 l 170 0 l 170 456 l 297 395 l 297 271 q 399 241 349 271 q 486 161 449 212 q 547 104 522 111 q 612 98 572 98 q 670 116 654 98 q 686 170 686 134 l 686 380 l 437 467 q 170 712 170 561 l 170 814 q 254 949 170 882 q 475 1017 339 1017 l 509 1017 q 729 949 644 1017 q 814 814 814 882 l 814 671 q 686 604 814 604 q 586 705 586 604 q 611 769 586 747 q 686 790 636 790 l 686 814 q 633 886 686 853 q 509 920 581 920 l 475 920 q 350 886 403 920 q 297 814 297 853 l 297 712 q 489 553 297 620 l 814 439 l 814 170 z "},"ប":{"ha":1000,"x_min":68,"x_max":932,"o":"m 703 673 l 644 709 q 585 767 585 745 q 623 846 585 788 l 736 1017 l 810 975 l 846 954 q 901 935 878 935 q 908 936 905 935 l 932 939 q 905 872 932 916 q 849 825 877 829 q 840 824 845 824 q 776 847 814 824 l 730 873 l 701 823 l 831 746 l 831 203 q 746 68 831 136 q 526 0 661 0 l 492 0 q 271 68 356 0 q 186 203 186 136 l 186 673 l 127 709 q 68 767 68 745 q 106 846 68 788 l 220 1017 l 293 975 l 330 954 q 384 935 361 935 q 391 936 388 935 l 416 939 q 388 872 416 916 q 332 825 360 829 q 323 824 328 824 q 259 847 298 824 l 213 873 l 184 823 l 314 746 l 314 203 q 367 131 314 164 q 492 98 420 98 l 526 98 q 650 131 597 98 q 703 203 703 164 l 703 673 z "},"ផ":{"ha":983,"x_min":102,"x_max":814,"o":"m 686 501 l 686 567 q 659 532 659 553 q 666 509 659 515 q 686 501 673 501 m 297 126 l 492 287 l 686 126 l 686 407 q 608 441 632 407 q 585 512 585 475 q 598 581 585 551 q 649 645 611 611 q 750 678 686 678 q 814 610 814 678 l 814 0 l 686 0 l 492 160 l 297 0 l 170 0 l 170 685 q 112 747 122 730 q 102 790 102 764 q 112 833 102 815 q 166 892 122 850 l 211 933 q 319 1017 300 1017 q 442 941 339 1017 q 604 868 548 868 q 694 892 666 868 q 723 963 723 916 q 624 1032 723 1032 q 556 1093 556 1032 q 624 1153 556 1153 q 763 1098 712 1153 q 814 963 814 1043 q 756 815 814 867 q 604 764 698 764 q 381 830 474 764 l 338 861 q 296 879 314 879 q 288 878 292 879 q 245 848 267 873 l 230 831 q 223 816 223 824 q 235 791 223 804 l 256 769 l 297 724 l 297 126 z "},"ព":{"ha":983,"x_min":102,"x_max":814,"o":"m 297 151 q 363 264 363 212 q 345 304 363 291 q 297 316 327 316 l 297 151 m 297 407 q 425 367 395 407 q 454 281 454 326 q 427 170 454 229 q 349 55 400 110 l 297 0 l 170 0 l 170 720 q 102 822 102 793 q 192 935 102 851 q 313 1017 281 1017 q 410 958 345 1017 l 460 909 q 469 905 464 905 q 503 927 483 905 l 531 958 q 623 1017 587 1017 q 689 991 648 1017 l 731 965 q 814 793 814 913 l 814 0 l 686 0 l 686 793 q 663 859 686 844 l 617 886 q 602 890 610 890 q 570 871 586 890 l 532 831 q 455 790 494 790 q 364 824 401 791 l 315 870 q 284 886 298 886 q 268 880 275 886 l 238 854 q 234 844 234 850 q 297 769 234 821 l 297 407 z "},"ភ":{"ha":1000,"x_min":68,"x_max":899,"o":"m 139 764 l 139 815 q 183 892 139 850 l 228 933 q 338 1017 317 1017 q 437 941 363 1017 l 473 903 q 512 884 492 884 q 547 903 529 884 l 581 941 q 673 1017 649 1017 q 736 975 697 1017 l 816 890 q 864 865 840 865 q 899 878 882 865 q 807 764 851 764 q 736 791 761 764 l 684 846 q 634 873 656 873 q 566 819 605 873 q 492 764 526 764 q 385 819 443 764 l 355 846 q 300 873 326 873 q 256 848 271 873 q 241 799 241 823 q 334 718 241 765 l 246 656 q 139 764 139 697 m 186 245 q 163 238 173 245 q 153 214 153 231 q 186 159 153 193 l 186 245 m 314 0 l 186 0 l 142 64 q 83 162 98 128 q 68 234 68 195 q 94 305 68 271 q 186 339 119 339 l 186 509 q 271 644 186 576 q 492 712 356 712 l 526 712 q 746 644 661 712 q 831 509 831 576 l 831 0 l 703 0 l 703 509 q 650 581 703 548 q 526 614 597 614 l 492 614 q 367 581 420 614 q 314 509 314 548 l 314 0 z "},"ម":{"ha":1000,"x_min":68,"x_max":932,"o":"m 314 426 l 314 203 q 367 131 314 164 q 492 98 420 98 l 526 98 q 650 131 597 98 q 703 203 703 164 l 703 426 l 314 426 m 314 524 l 703 524 l 703 673 l 644 709 q 585 767 585 745 q 623 846 585 788 l 736 1017 l 810 975 l 846 954 q 901 935 878 935 q 908 936 905 935 l 932 939 q 905 872 932 916 q 849 825 877 829 q 840 824 845 824 q 776 847 814 824 l 730 873 l 701 823 l 831 746 l 831 203 q 746 68 831 136 q 526 0 661 0 l 492 0 q 271 68 356 0 q 186 203 186 136 l 186 673 l 127 709 q 68 767 68 745 q 106 846 68 788 l 220 1017 l 293 975 l 330 954 q 384 935 361 935 q 391 936 388 935 l 416 939 q 388 872 416 916 q 332 825 360 829 q 323 824 328 824 q 259 847 298 824 l 213 873 l 184 823 l 314 746 l 314 524 z "},"យ":{"ha":1466,"x_min":170,"x_max":1398,"o":"m 297 772 q 321 779 311 772 q 331 804 331 787 q 297 859 331 825 l 297 772 m 297 203 q 350 131 297 164 q 475 98 403 98 l 509 98 q 633 131 581 98 q 686 203 686 164 l 686 673 l 627 709 q 568 767 568 745 q 606 846 568 788 l 720 1017 l 793 975 l 829 954 q 884 935 861 935 q 891 936 888 935 l 916 939 q 888 872 916 916 q 832 825 860 829 q 823 824 828 824 q 759 847 798 824 l 713 873 l 684 823 l 814 746 l 814 203 q 867 131 814 164 q 991 98 920 98 q 1116 131 1063 98 q 1169 203 1169 164 l 1169 673 l 1110 709 q 1050 767 1050 745 q 1088 846 1050 788 l 1202 1017 l 1276 975 l 1312 954 q 1367 935 1344 935 q 1374 936 1371 935 l 1398 939 q 1371 872 1398 916 q 1315 825 1343 829 q 1306 824 1311 824 q 1242 847 1280 824 l 1196 873 l 1166 823 l 1297 746 l 1297 203 q 1212 68 1297 136 q 991 0 1127 0 q 771 68 856 0 q 750 86 760 77 q 729 68 741 77 q 509 0 644 0 l 475 0 q 254 68 339 0 q 170 203 170 136 l 170 949 q 254 1017 170 1017 q 342 954 297 1017 q 401 855 386 889 q 416 783 416 822 q 390 712 416 746 q 297 678 365 678 l 297 203 z "},"រ":{"ha":484,"x_min":68,"x_max":416,"o":"m 186 245 q 163 238 173 245 q 153 214 153 231 q 186 159 153 193 l 186 245 m 314 0 l 186 0 l 142 64 q 83 162 98 128 q 68 234 68 195 q 94 305 68 271 q 186 339 119 339 l 186 673 l 127 709 q 68 767 68 745 q 106 846 68 788 l 220 1017 l 293 975 l 330 954 q 384 935 361 935 q 391 936 388 935 l 416 939 q 388 872 416 916 q 332 825 360 829 q 323 824 328 824 q 259 847 298 824 l 213 873 l 184 823 l 314 746 l 314 0 z "},"ល":{"ha":1466,"x_min":95,"x_max":1398,"o":"m 297 151 q 363 264 363 212 q 345 304 363 291 q 297 316 327 316 l 297 151 m 297 407 q 425 367 395 407 q 454 281 454 326 q 427 170 454 229 q 349 55 400 110 l 297 0 l 170 0 l 170 684 l 127 709 q 95 773 95 729 q 163 867 95 817 l 256 937 q 434 1017 365 1017 q 595 981 541 1017 l 741 880 q 814 712 814 831 l 814 203 q 867 131 814 164 q 991 98 920 98 q 1116 131 1063 98 q 1169 203 1169 164 l 1169 673 l 1110 709 q 1050 767 1050 745 q 1088 846 1050 788 l 1202 1017 l 1276 975 l 1312 954 q 1367 935 1344 935 q 1374 936 1371 935 l 1398 939 q 1371 872 1398 916 q 1315 825 1343 829 q 1306 824 1311 824 q 1242 847 1280 824 l 1196 873 l 1166 823 l 1297 746 l 1297 203 q 1212 68 1297 136 q 991 0 1127 0 q 771 68 856 0 q 686 203 686 136 l 686 712 q 660 783 686 764 l 519 879 q 434 897 494 897 q 317 862 363 897 l 230 795 l 256 779 q 297 712 297 753 l 297 407 z "},"វ":{"ha":484,"x_min":68,"x_max":399,"o":"m 186 245 q 163 238 173 245 q 153 214 153 231 q 186 159 153 193 l 186 245 m 314 0 l 186 0 l 142 64 q 83 162 98 128 q 68 234 68 195 q 94 305 68 271 q 186 339 119 339 l 186 673 l 127 709 q 68 767 68 745 q 172 1017 68 788 q 285 928 264 928 l 287 928 q 305 977 305 933 q 240 1046 305 1019 q 184 1102 184 1069 q 185 1113 184 1107 q 241 1153 195 1153 q 343 1112 287 1153 q 399 977 399 1072 q 365 852 399 887 q 300 818 330 818 q 193 865 270 818 l 176 824 l 314 746 l 314 0 z "},"ឝ":{"ha":983,"x_min":122,"x_max":916,"o":"m 229 656 q 122 764 122 697 l 122 815 q 166 892 122 850 l 211 933 q 321 1017 300 1017 q 420 941 347 1017 l 456 903 q 495 884 475 884 q 530 903 512 884 l 564 941 q 656 1017 632 1017 q 719 975 680 1017 l 799 890 q 847 865 823 865 q 882 878 865 865 q 790 764 834 764 q 720 791 744 764 l 667 846 q 617 873 640 873 q 549 819 588 873 q 475 764 509 764 q 368 819 426 764 l 338 846 q 283 873 309 873 q 239 848 254 873 q 224 799 224 823 q 317 718 224 765 l 229 656 m 686 369 l 686 509 q 633 581 686 548 q 509 614 581 614 l 475 614 q 350 581 403 614 q 297 509 297 548 l 297 203 l 328 252 q 449 339 381 339 q 543 258 543 339 q 490 203 543 203 q 452 226 452 203 q 435 248 452 248 q 385 192 419 248 l 352 136 l 297 45 l 283 0 l 170 0 l 170 509 q 254 644 170 576 q 475 712 339 712 l 509 712 q 729 644 644 712 q 814 509 814 576 l 814 369 l 916 369 l 916 271 l 814 271 l 814 0 l 686 0 l 686 271 l 576 271 l 576 369 l 686 369 z "},"ឞ":{"ha":1000,"x_min":68,"x_max":932,"o":"m 703 505 l 703 673 l 644 709 q 585 767 585 745 q 623 846 585 788 l 736 1017 l 810 975 l 846 954 q 901 935 878 935 q 908 936 905 935 l 932 939 q 905 872 932 916 q 849 825 877 829 q 840 824 845 824 q 776 847 814 824 l 730 873 l 701 823 l 831 746 l 831 505 l 916 505 l 916 407 l 831 407 l 831 203 q 746 68 831 136 q 526 0 661 0 l 492 0 q 271 68 356 0 q 186 203 186 136 l 186 673 l 127 709 q 68 767 68 745 q 106 846 68 788 l 220 1017 l 293 975 l 330 954 q 384 935 361 935 q 391 936 388 935 l 416 939 q 388 872 416 916 q 332 825 360 829 q 323 824 328 824 q 259 847 298 824 l 213 873 l 184 823 l 314 746 l 314 203 q 367 131 314 164 q 492 98 420 98 l 526 98 q 650 131 597 98 q 703 203 703 164 l 703 407 l 576 407 l 576 505 l 703 505 z "},"ស":{"ha":1466,"x_min":170,"x_max":1398,"o":"m 297 159 q 331 214 331 193 q 321 238 331 231 q 297 245 311 245 l 297 159 m 334 689 l 285 711 q 203 767 203 749 q 255 846 203 788 l 410 1017 l 560 949 q 629 931 600 931 q 644 932 637 931 l 678 939 q 656 874 678 916 q 595 821 633 833 q 568 817 583 817 q 507 833 541 817 l 401 881 l 355 821 l 493 756 q 537 711 530 739 q 729 644 653 705 q 814 509 814 576 l 814 203 q 867 131 814 164 q 991 98 920 98 q 1116 131 1063 98 q 1169 203 1169 164 l 1169 673 l 1110 709 q 1050 767 1050 745 q 1088 846 1050 788 l 1202 1017 l 1276 975 l 1312 954 q 1367 935 1344 935 q 1374 936 1371 935 l 1398 939 q 1371 872 1398 916 q 1315 825 1343 829 q 1306 824 1311 824 q 1242 847 1280 824 l 1196 873 l 1166 823 l 1297 746 l 1297 203 q 1212 68 1297 136 q 991 0 1127 0 q 771 68 856 0 q 686 203 686 136 l 686 509 q 633 581 686 548 q 509 614 581 614 l 475 614 q 350 581 403 614 q 297 509 297 548 l 297 339 q 390 305 365 339 q 416 234 416 271 q 401 162 416 195 q 342 64 386 128 l 297 0 l 170 0 l 170 509 q 254 644 170 576 q 334 689 290 673 z "},"ហ":{"ha":1449,"x_min":68,"x_max":1280,"o":"m 1280 755 l 1280 0 l 1152 0 l 1152 755 l 884 879 q 825 897 846 897 q 697 804 777 897 l 797 746 l 797 203 q 712 68 797 136 q 492 0 627 0 q 271 68 356 0 q 186 203 186 136 l 186 673 l 127 709 q 68 767 68 745 q 106 846 68 788 l 220 1017 l 293 975 l 330 954 q 384 935 361 935 q 391 936 388 935 l 416 939 q 388 872 416 916 q 332 825 360 829 q 323 824 328 824 q 259 847 298 824 l 213 873 l 184 823 l 314 746 l 314 203 q 367 131 314 164 q 492 98 420 98 q 616 131 564 98 q 669 203 669 164 l 669 673 l 610 709 q 551 767 551 745 q 606 846 551 788 l 687 931 q 832 1017 769 1017 q 937 995 888 1017 l 1206 871 q 1280 755 1280 838 z "},"ឡ":{"ha":1466,"x_min":170,"x_max":1398,"o":"m 707 481 q 684 455 684 481 q 726 469 726 455 q 707 481 726 481 m 669 742 q 661 729 661 737 q 686 709 661 709 l 686 746 q 669 742 677 746 m 170 814 q 254 949 170 882 q 475 1017 339 1017 l 509 1017 q 729 949 644 1017 q 814 814 814 882 l 814 709 q 686 641 814 641 q 593 729 593 641 q 618 792 593 771 q 686 814 643 814 q 633 886 686 853 q 509 920 581 920 l 475 920 q 350 886 403 920 q 297 814 297 853 l 297 641 q 351 505 297 555 q 492 455 404 455 l 556 455 q 592 526 556 489 q 707 564 627 564 q 784 542 753 564 q 814 469 814 519 q 783 389 814 411 q 684 367 753 367 l 684 205 q 630 51 684 102 q 475 0 577 0 q 324 43 382 0 q 266 170 266 86 l 266 305 l 387 305 l 387 170 q 410 119 387 141 q 475 98 434 98 q 530 124 505 98 q 556 204 556 150 l 556 367 l 492 367 q 257 444 345 367 q 170 641 170 521 l 170 814 m 1169 673 l 1110 709 q 1050 767 1050 745 q 1088 846 1050 788 l 1202 1017 l 1276 975 l 1312 954 q 1367 935 1344 935 q 1374 936 1371 935 l 1398 939 q 1371 872 1398 916 q 1315 825 1343 829 q 1306 824 1311 824 q 1242 847 1280 824 l 1196 873 l 1166 823 l 1297 746 l 1297 -441 l 1169 -441 l 991 -295 l 814 -441 l 686 -441 l 686 -203 q 610 -142 610 -203 q 648 -71 610 -109 q 730 -34 686 -34 q 814 -102 814 -34 l 814 -315 l 991 -168 l 1169 -315 l 1169 673 z "},"អ":{"ha":1000,"x_min":68,"x_max":932,"o":"m 703 245 q 680 238 690 245 q 669 214 669 231 q 703 159 669 193 l 703 245 m 186 245 q 163 238 173 245 q 153 214 153 231 q 186 159 153 193 l 186 245 m 831 0 l 703 0 l 659 64 q 600 162 614 128 q 585 234 585 195 q 610 305 585 271 q 703 339 635 339 l 703 446 l 314 446 l 314 0 l 186 0 l 142 64 q 83 162 98 128 q 68 234 68 195 q 94 305 68 271 q 186 339 119 339 l 186 673 l 127 709 q 68 767 68 745 q 106 846 68 788 l 220 1017 l 293 975 l 330 954 q 384 935 361 935 q 391 936 388 935 l 416 939 q 388 872 416 916 q 332 825 360 829 q 323 824 328 824 q 259 847 298 824 l 213 873 l 184 823 l 314 746 l 314 544 l 703 544 l 703 673 l 644 709 q 585 767 585 745 q 623 846 585 788 l 736 1017 l 810 975 l 846 954 q 901 935 878 935 q 908 936 905 935 l 932 939 q 905 872 932 916 q 849 825 877 829 q 840 824 845 824 q 776 847 814 824 l 730 873 l 701 823 l 831 746 l 831 0 z "},"ឣ":{"ha":1000,"x_min":68,"x_max":932,"o":"m 703 245 q 680 238 690 245 q 669 214 669 231 q 703 159 669 193 l 703 245 m 186 245 q 163 238 173 245 q 153 214 153 231 q 186 159 153 193 l 186 245 m 831 0 l 703 0 l 659 64 q 600 162 614 128 q 585 234 585 195 q 610 305 585 271 q 703 339 635 339 l 703 446 l 314 446 l 314 0 l 186 0 l 142 64 q 83 162 98 128 q 68 234 68 195 q 94 305 68 271 q 186 339 119 339 l 186 673 l 127 709 q 68 767 68 745 q 106 846 68 788 l 220 1017 l 293 975 l 330 954 q 384 935 361 935 q 391 936 388 935 l 416 939 q 388 872 416 916 q 332 825 360 829 q 323 824 328 824 q 259 847 298 824 l 213 873 l 184 823 l 314 746 l 314 544 l 703 544 l 703 673 l 644 709 q 585 767 585 745 q 623 846 585 788 l 736 1017 l 810 975 l 846 954 q 901 935 878 935 q 908 936 905 935 l 932 939 q 905 872 932 916 q 849 825 877 829 q 840 824 845 824 q 776 847 814 824 l 730 873 l 701 823 l 831 746 l 831 0 z "},"ឤ":{"ha":1483,"x_min":68,"x_max":1314,"o":"m 703 245 q 680 238 690 245 q 669 214 669 231 q 703 159 669 193 l 703 245 m 186 245 q 163 238 173 245 q 153 214 153 231 q 186 159 153 193 l 186 245 m 703 673 l 644 709 q 585 767 585 745 q 640 846 585 788 l 721 931 q 866 1017 803 1017 q 971 995 922 1017 l 1240 871 q 1314 755 1314 838 l 1314 0 l 1186 0 l 1186 755 l 918 879 q 859 897 880 897 q 731 804 810 897 l 831 746 l 831 0 l 703 0 l 659 64 q 600 162 614 128 q 585 234 585 195 q 610 305 585 271 q 703 339 635 339 l 703 446 l 314 446 l 314 0 l 186 0 l 142 64 q 83 162 98 128 q 68 234 68 195 q 94 305 68 271 q 186 339 119 339 l 186 673 l 127 709 q 68 767 68 745 q 106 846 68 788 l 220 1017 l 293 975 l 330 954 q 384 935 361 935 q 391 936 388 935 l 416 939 q 388 872 416 916 q 332 825 360 829 q 323 824 328 824 q 259 847 298 824 l 213 873 l 184 823 l 314 746 l 314 544 l 703 544 l 703 673 z "},"ឥ":{"ha":983,"x_min":122,"x_max":814,"o":"m 297 159 q 331 214 331 193 q 321 238 331 231 q 297 245 311 245 l 297 159 m 170 509 q 254 644 170 576 q 475 712 339 712 l 509 712 q 729 644 644 712 q 814 509 814 576 l 814 0 l 686 0 l 686 509 q 633 581 686 548 q 509 614 581 614 l 475 614 q 350 581 403 614 q 297 509 297 548 l 297 339 q 390 305 365 339 q 416 234 416 271 q 401 162 416 195 q 342 64 386 128 l 297 0 l 170 0 l 170 509 m 122 764 l 122 815 q 211 933 122 850 q 321 1017 300 1017 q 420 941 347 1017 q 583 868 495 868 q 688 892 652 868 q 723 963 723 916 q 624 1032 723 1032 q 556 1095 556 1032 q 624 1153 556 1153 q 763 1098 712 1153 q 814 963 814 1043 q 756 815 814 867 q 583 764 698 764 q 368 819 426 764 l 338 846 q 290 873 309 873 q 242 852 260 873 q 224 799 224 830 q 317 718 224 765 l 229 656 q 122 764 122 697 z "},"ឦ":{"ha":1449,"x_min":170,"x_max":1381,"o":"m 297 159 q 331 214 331 193 q 321 238 331 231 q 297 245 311 245 l 297 159 m 814 0 l 686 0 l 686 814 q 633 886 686 853 q 509 920 581 920 l 475 920 q 350 886 403 920 q 297 814 297 853 l 297 339 q 390 305 365 339 q 416 234 416 271 q 401 162 416 195 q 342 64 386 128 l 297 0 l 170 0 l 170 814 q 254 949 170 882 q 475 1017 339 1017 l 509 1017 q 729 949 644 1017 q 814 814 814 882 l 814 0 m 1169 673 l 1110 709 q 1050 767 1050 745 q 1155 1017 1050 788 q 1267 928 1246 928 l 1270 928 q 1288 977 1288 933 q 1223 1046 1288 1019 q 1166 1102 1166 1069 q 1168 1113 1166 1107 q 1224 1153 1178 1153 q 1326 1112 1270 1153 q 1381 977 1381 1072 q 1348 852 1381 887 q 1283 818 1313 818 q 1175 865 1253 818 l 1159 824 l 1297 746 l 1297 -305 q 1136 -441 1297 -441 l 814 -441 q 652 -305 652 -441 l 652 -237 q 600 -165 652 -198 q 492 -132 547 -132 q 384 -165 437 -132 q 331 -237 331 -198 l 331 -271 q 411 -288 392 -271 q 429 -330 429 -305 q 380 -411 429 -381 q 288 -441 331 -441 q 203 -373 203 -441 l 203 -237 q 288 -102 203 -170 q 492 -34 373 -34 q 695 -102 610 -34 q 780 -237 780 -170 l 780 -305 q 878 -350 780 -350 l 1072 -350 q 1169 -305 1169 -350 l 1169 673 z "},"ឧ":{"ha":983,"x_min":170,"x_max":814,"o":"m 297 695 l 297 644 q 330 678 330 644 q 321 691 330 686 q 297 695 313 695 m 686 814 q 633 886 686 853 q 509 920 581 920 l 475 920 q 350 886 403 920 q 297 814 297 853 l 297 763 q 372 742 347 763 q 397 678 397 720 q 297 576 397 576 q 170 644 170 576 l 170 814 q 254 949 170 882 q 475 1017 339 1017 l 509 1017 q 729 949 644 1017 q 814 814 814 882 l 814 712 q 555 462 814 595 l 297 329 l 297 170 q 313 116 297 134 q 357 98 330 98 q 432 126 397 98 q 584 241 534 212 q 686 271 634 271 l 686 395 l 814 456 l 814 34 q 709 -68 814 -68 q 639 -19 639 -68 q 686 41 686 3 l 686 180 q 622 159 654 180 q 504 69 590 138 q 357 0 418 0 q 220 39 270 0 q 170 170 170 79 l 170 373 l 492 539 q 686 712 686 640 l 686 814 z "},"ឨ":{"ha":983,"x_min":122,"x_max":882,"o":"m 297 695 l 297 644 q 330 678 330 644 q 321 691 330 686 q 297 695 313 695 m 686 814 q 633 886 686 853 q 509 920 581 920 l 475 920 q 350 886 403 920 q 297 814 297 853 l 297 763 q 372 742 347 763 q 397 678 397 720 q 297 576 397 576 q 170 644 170 576 l 170 814 q 254 949 170 882 q 475 1017 339 1017 l 509 1017 q 729 949 644 1017 q 814 814 814 882 l 814 712 q 555 462 814 595 l 297 329 l 297 170 q 313 116 297 134 q 357 98 330 98 q 432 126 397 98 q 584 241 534 212 q 686 271 634 271 l 686 395 l 814 456 l 814 34 q 709 -68 814 -68 q 639 -19 639 -68 q 686 41 686 3 l 686 180 q 622 159 654 180 q 504 69 590 138 q 357 0 418 0 q 220 39 270 0 q 170 170 170 79 l 170 373 l 492 539 q 686 712 686 640 l 686 814 m 229 961 q 122 1069 122 1002 l 122 1120 q 166 1197 122 1156 l 211 1238 q 321 1322 300 1322 q 420 1246 347 1322 l 456 1208 q 495 1189 475 1189 q 530 1208 512 1189 l 564 1246 q 656 1322 632 1322 q 719 1280 680 1322 l 799 1196 q 847 1171 823 1171 q 882 1183 865 1171 q 790 1069 834 1069 q 720 1096 744 1069 l 667 1151 q 617 1179 640 1179 q 549 1124 588 1179 q 475 1069 509 1069 q 368 1124 426 1069 l 338 1152 q 283 1179 309 1179 q 239 1154 254 1179 q 224 1104 224 1128 q 317 1023 224 1070 l 229 961 z "},"ឩ":{"ha":1017,"x_min":170,"x_max":1017,"o":"m 297 695 l 297 644 q 330 678 330 644 q 321 691 330 686 q 297 695 313 695 m 686 814 q 633 886 686 853 q 509 920 581 920 l 475 920 q 350 886 403 920 q 297 814 297 853 l 297 763 q 372 742 347 763 q 397 678 397 720 q 297 576 397 576 q 170 644 170 576 l 170 814 q 254 949 170 882 q 475 1017 339 1017 l 509 1017 q 729 949 644 1017 q 814 814 814 882 l 814 712 q 555 462 814 595 l 297 329 l 297 170 q 313 116 297 134 q 357 98 330 98 q 432 126 397 98 q 584 241 534 212 q 686 271 634 271 l 686 395 l 814 456 l 814 34 q 709 -68 814 -68 q 639 -19 639 -68 q 686 41 686 3 l 686 180 q 622 159 654 180 q 504 69 590 138 q 357 0 418 0 q 220 39 270 0 q 170 170 170 79 l 170 373 l 492 539 q 686 712 686 640 l 686 814 m 890 395 l 1017 456 l 1017 -68 l 890 -68 l 890 395 z "},"ឪ":{"ha":983,"x_min":122,"x_max":814,"o":"m 297 695 l 297 644 q 330 678 330 644 q 321 691 330 686 q 297 695 313 695 m 686 814 q 633 886 686 853 q 509 920 581 920 l 475 920 q 350 886 403 920 q 297 814 297 853 l 297 763 q 372 742 347 763 q 397 678 397 720 q 297 576 397 576 q 170 644 170 576 l 170 814 q 254 949 170 882 q 475 1017 339 1017 l 509 1017 q 729 949 644 1017 q 814 814 814 882 l 814 712 q 555 462 814 595 l 297 329 l 297 170 q 313 116 297 134 q 357 98 330 98 q 432 126 397 98 q 584 241 534 212 q 686 271 634 271 l 686 395 l 814 456 l 814 34 q 709 -68 814 -68 q 639 -19 639 -68 q 686 41 686 3 l 686 180 q 622 159 654 180 q 504 69 590 138 q 357 0 418 0 q 220 39 270 0 q 170 170 170 79 l 170 373 l 492 539 q 686 712 686 640 l 686 814 m 122 1069 l 122 1120 q 211 1238 122 1156 q 321 1322 300 1322 q 420 1246 347 1322 q 583 1173 495 1173 q 688 1197 652 1173 q 723 1268 723 1221 q 624 1337 723 1337 q 556 1400 556 1337 q 624 1458 556 1458 q 763 1403 712 1458 q 814 1268 814 1348 q 756 1120 814 1172 q 583 1069 698 1069 q 368 1124 426 1069 l 338 1152 q 290 1179 309 1179 q 242 1157 260 1179 q 224 1104 224 1135 q 317 1023 224 1070 l 229 961 q 122 1069 122 1002 z "},"ឫ":{"ha":1000,"x_min":68,"x_max":932,"o":"m 831 -170 q 726 -322 831 -271 q 412 -373 621 -373 q 233 -351 307 -373 q 119 -285 160 -329 q 412 -305 245 -305 q 637 -271 562 -305 q 712 -170 712 -237 q 700 -144 712 -153 q 662 -136 687 -136 q 683 -85 662 -102 q 746 -68 704 -68 q 810 -94 789 -68 q 831 -170 831 -119 m 703 673 l 644 709 q 585 767 585 745 q 623 846 585 788 l 736 1017 l 810 975 l 846 954 q 901 935 878 935 q 908 936 905 935 l 932 939 q 905 872 932 916 q 849 825 877 829 q 840 824 845 824 q 776 847 814 824 l 730 873 l 701 823 l 831 746 l 831 203 q 746 68 831 136 q 526 0 661 0 l 492 0 q 271 68 356 0 q 186 203 186 136 l 186 673 l 127 709 q 68 767 68 745 q 106 846 68 788 l 220 1017 l 293 975 l 330 954 q 384 935 361 935 q 391 936 388 935 l 416 939 q 388 872 416 916 q 332 825 360 829 q 323 824 328 824 q 259 847 298 824 l 213 873 l 184 823 l 314 746 l 314 203 q 367 131 314 164 q 492 98 420 98 l 526 98 q 650 131 597 98 q 703 203 703 164 l 703 673 z "},"ឬ":{"ha":1000,"x_min":68,"x_max":932,"o":"m 831 -170 q 807 -254 831 -217 q 845 -293 814 -279 q 932 -306 876 -306 q 905 -356 932 -339 q 822 -373 877 -373 q 753 -362 783 -373 q 707 -330 725 -351 q 581 -362 655 -351 q 411 -373 507 -373 q 233 -351 307 -373 q 119 -285 160 -329 q 412 -305 244 -305 q 637 -271 562 -305 q 711 -170 711 -237 q 661 -136 711 -136 q 682 -85 661 -102 q 747 -68 704 -68 q 810 -94 789 -68 q 831 -170 831 -119 m 703 673 l 644 709 q 585 767 585 745 q 623 846 585 788 l 736 1017 l 810 975 l 846 954 q 901 935 878 935 q 908 936 905 935 l 932 939 q 905 872 932 916 q 849 825 877 829 q 840 824 845 824 q 776 847 814 824 l 730 873 l 701 823 l 831 746 l 831 203 q 746 68 831 136 q 526 0 661 0 l 492 0 q 271 68 356 0 q 186 203 186 136 l 186 673 l 127 709 q 68 767 68 745 q 106 846 68 788 l 220 1017 l 293 975 l 330 954 q 384 935 361 935 q 391 936 388 935 l 416 939 q 388 872 416 916 q 332 825 360 829 q 323 824 328 824 q 259 847 298 824 l 213 873 l 184 823 l 314 746 l 314 203 q 367 131 314 164 q 492 98 420 98 l 526 98 q 650 131 597 98 q 703 203 703 164 l 703 673 z "},"ឭ":{"ha":983,"x_min":102,"x_max":814,"o":"m 297 151 q 363 264 363 212 q 345 304 363 291 q 297 316 327 316 l 297 151 m 297 407 q 425 367 395 407 q 454 281 454 326 q 427 170 454 229 q 349 55 400 110 l 297 0 l 170 0 l 170 720 q 102 822 102 793 q 192 935 102 851 q 313 1017 281 1017 q 410 958 345 1017 l 460 909 q 469 905 464 905 q 503 927 483 905 l 531 958 q 623 1017 587 1017 q 689 991 648 1017 l 731 965 q 814 793 814 913 l 814 0 l 686 0 l 686 793 q 663 859 686 844 l 617 886 q 602 890 610 890 q 570 871 586 890 l 532 831 q 455 790 494 790 q 364 824 401 791 l 315 870 q 284 886 298 886 q 268 880 275 886 l 238 854 q 234 844 234 850 q 297 769 234 821 l 297 407 m 814 -170 q 709 -322 814 -271 q 395 -373 604 -373 q 216 -351 290 -373 q 102 -285 143 -329 q 395 -305 228 -305 q 621 -271 545 -305 q 695 -170 695 -237 q 683 -144 695 -153 q 645 -136 670 -136 q 666 -85 645 -102 q 729 -68 687 -68 q 793 -94 772 -68 q 814 -170 814 -119 z "},"ឮ":{"ha":983,"x_min":102,"x_max":915,"o":"m 297 151 q 363 264 363 212 q 345 304 363 291 q 297 316 327 316 l 297 151 m 297 407 q 425 367 395 407 q 454 281 454 326 q 427 170 454 229 q 349 55 400 110 l 297 0 l 170 0 l 170 720 q 102 822 102 793 q 192 935 102 851 q 313 1017 281 1017 q 410 958 345 1017 l 460 909 q 469 905 464 905 q 503 927 483 905 l 531 958 q 623 1017 587 1017 q 689 991 648 1017 l 731 965 q 814 793 814 913 l 814 0 l 686 0 l 686 793 q 663 859 686 844 l 617 886 q 602 890 610 890 q 570 871 586 890 l 532 831 q 455 790 494 790 q 364 824 401 791 l 315 870 q 284 886 298 886 q 268 880 275 886 l 238 854 q 234 844 234 850 q 297 769 234 821 l 297 407 m 814 -170 q 790 -254 814 -217 q 828 -293 797 -279 q 915 -306 859 -306 q 888 -356 915 -339 q 805 -373 860 -373 q 736 -362 766 -373 q 690 -330 708 -351 q 564 -362 638 -351 q 394 -373 490 -373 q 216 -351 290 -373 q 102 -285 143 -329 q 395 -305 227 -305 q 620 -271 545 -305 q 694 -170 694 -237 q 644 -136 694 -136 q 665 -85 644 -102 q 730 -68 687 -68 q 793 -94 772 -68 q 814 -170 814 -119 z "},"ឯ":{"ha":983,"x_min":68,"x_max":814,"o":"m 170 501 l 170 567 q 142 532 142 553 q 149 509 142 515 q 170 501 156 501 m 170 407 q 92 441 115 407 q 68 512 68 475 q 81 581 68 551 q 132 645 94 611 q 233 678 170 678 q 297 610 297 678 l 297 126 l 492 287 l 686 126 l 686 762 l 530 871 q 471 897 494 897 q 343 804 422 897 q 289 772 317 775 l 283 772 q 230 793 258 772 q 170 922 170 844 q 186 1012 170 966 q 203 1105 203 1058 q 136 1153 203 1153 q 203 1221 136 1221 q 331 1105 331 1221 q 314 1009 331 1048 q 297 922 297 970 l 297 893 l 333 931 q 478 1017 415 1017 q 583 989 543 1017 l 750 873 q 814 755 814 830 l 814 0 l 686 0 l 492 160 l 297 0 l 170 0 l 170 407 z "},"ឰ":{"ha":983,"x_min":102,"x_max":814,"o":"m 686 -87 q 520 -214 610 -168 l 587 -230 q 621 -234 606 -234 q 665 -219 650 -234 q 686 -126 686 -197 l 686 -87 m 372 -353 q 420 -335 401 -353 q 438 -282 438 -317 l 438 -249 q 302 -298 360 -286 l 302 -319 q 325 -345 302 -336 q 372 -353 347 -353 m 297 151 q 363 264 363 212 q 345 304 363 291 q 297 316 327 316 l 297 151 m 210 -226 q 444 -148 336 -191 q 637 -22 550 -106 l 686 33 l 686 793 q 663 859 686 844 l 617 886 q 602 890 610 890 q 570 871 586 890 l 532 831 q 455 790 494 790 q 364 824 401 791 l 315 870 q 284 886 298 886 q 268 880 275 886 l 238 854 q 234 844 234 850 q 297 769 234 821 l 297 407 q 425 367 395 407 q 454 281 454 326 q 427 170 454 229 q 349 55 400 110 l 297 0 l 170 0 l 170 720 q 102 822 102 793 q 192 935 102 851 q 313 1017 281 1017 q 410 958 345 1017 l 460 909 q 469 905 464 905 q 503 927 483 905 l 531 958 q 623 1017 587 1017 q 689 991 648 1017 l 731 965 q 814 793 814 913 l 814 -126 q 757 -292 814 -244 q 655 -324 719 -324 q 587 -317 624 -324 l 532 -304 q 494 -407 532 -373 q 379 -441 456 -441 q 222 -415 274 -441 q 170 -339 170 -390 q 210 -226 170 -241 z "},"ឱ":{"ha":983,"x_min":122,"x_max":848,"o":"m 297 695 l 297 644 q 330 678 330 644 q 321 691 330 686 q 297 695 313 695 m 686 814 q 633 886 686 853 q 509 920 581 920 l 475 920 q 350 886 403 920 q 297 814 297 853 l 297 763 q 372 742 347 763 q 397 678 397 720 q 297 576 397 576 q 170 644 170 576 l 170 814 q 254 949 170 882 q 475 1017 339 1017 l 509 1017 q 729 949 644 1017 q 814 814 814 882 l 814 712 q 555 462 814 595 l 297 329 l 297 170 q 313 116 297 134 q 357 98 330 98 q 432 126 397 98 q 584 241 534 212 q 686 271 634 271 l 686 395 l 814 456 l 814 34 q 709 -68 814 -68 q 639 -19 639 -68 q 686 41 686 3 l 686 180 q 622 159 654 180 q 504 69 590 138 q 357 0 418 0 q 220 39 270 0 q 170 170 170 79 l 170 373 l 492 539 q 686 712 686 640 l 686 814 m 229 961 q 122 1069 122 1002 l 122 1120 q 166 1197 122 1156 l 211 1238 q 475 1322 307 1322 q 799 1196 677 1322 q 848 1088 848 1154 q 762 973 848 1022 q 764 991 764 981 q 707 1109 764 1040 q 475 1202 617 1202 q 239 1154 267 1202 q 224 1104 224 1128 q 317 1023 224 1070 l 229 961 z "},"ឲ":{"ha":983,"x_min":170,"x_max":814,"o":"m 606 678 q 538 663 562 678 q 513 610 513 646 q 595 570 513 570 q 503 509 550 509 q 429 534 458 509 q 399 610 399 559 q 452 728 399 680 q 606 776 505 776 q 761 728 707 776 q 814 610 814 680 q 791 532 814 573 q 703 422 764 480 q 779 377 751 408 q 814 264 814 336 l 814 203 q 729 68 814 136 q 509 0 644 0 l 475 0 q 254 68 339 0 q 170 203 170 136 l 170 814 q 254 949 170 882 q 475 1017 339 1017 l 509 1017 q 729 949 644 1017 l 814 882 l 686 853 l 633 886 q 509 920 581 920 l 475 920 q 350 886 403 920 q 297 814 297 853 l 297 203 q 350 131 297 164 q 475 98 403 98 l 509 98 q 633 131 581 98 q 686 203 686 164 l 686 264 q 674 337 686 315 q 635 364 663 359 q 620 353 628 358 l 475 241 q 430 222 451 222 q 390 242 408 222 q 373 276 373 260 q 397 314 373 296 l 528 414 q 675 551 633 496 q 701 610 701 587 q 674 663 701 646 q 606 678 650 678 z "},"ឳ":{"ha":983,"x_min":122,"x_max":848,"o":"m 297 695 l 297 644 q 330 678 330 644 q 321 691 330 686 q 297 695 313 695 m 686 814 q 633 886 686 853 q 509 920 581 920 l 475 920 q 350 886 403 920 q 297 814 297 853 l 297 763 q 372 742 347 763 q 397 678 397 720 q 297 576 397 576 q 170 644 170 576 l 170 814 q 254 949 170 882 q 475 1017 339 1017 l 509 1017 q 729 949 644 1017 q 814 814 814 882 l 814 712 q 555 462 814 595 l 297 329 l 297 170 q 313 116 297 134 q 357 98 330 98 q 432 126 397 98 q 584 241 534 212 q 686 271 634 271 l 686 395 l 814 456 l 814 34 q 709 -68 814 -68 q 639 -19 639 -68 q 686 41 686 3 l 686 180 q 622 159 654 180 q 504 69 590 138 q 357 0 418 0 q 220 39 270 0 q 170 170 170 79 l 170 373 l 492 539 q 686 712 686 640 l 686 814 m 848 1149 q 762 973 848 1022 q 764 991 764 981 q 707 1109 764 1040 q 475 1202 617 1202 q 239 1154 267 1202 q 224 1104 224 1128 q 317 1023 224 1070 l 229 961 q 122 1069 122 1002 l 122 1120 q 166 1197 122 1156 l 211 1238 q 475 1322 307 1322 q 752 1238 640 1322 l 752 1252 q 692 1387 752 1345 l 661 1409 q 642 1440 642 1422 q 652 1467 642 1452 q 682 1485 665 1485 q 719 1471 699 1485 l 762 1440 q 848 1223 848 1379 l 848 1149 z "},"ា":{"ha":467,"x_min":-170,"x_max":297,"o":"m -136 850 q -170 922 -170 882 q -144 964 -170 947 q -5 1017 -66 1017 q 114 972 56 1017 l 244 869 q 297 765 297 829 l 297 0 l 170 0 l 170 765 l 9 895 q -35 913 -16 913 q -56 906 -46 913 l -136 850 z "},"ិ":{"ha":0,"x_min":-776,"x_max":-170,"o":"m -776 1284 q -576 1458 -776 1458 q -227 1305 -400 1458 q -170 1221 -170 1255 q -237 1187 -170 1187 l -678 1187 q -776 1284 -776 1187 m -678 1284 l -339 1284 q -460 1352 -405 1337 q -576 1367 -515 1367 q -678 1284 -678 1367 z "},"ី":{"ha":0,"x_min":-776,"x_max":-170,"o":"m -678 1284 l -339 1284 q -460 1352 -405 1337 q -576 1367 -515 1367 q -678 1284 -678 1367 m -260 1333 l -260 1526 l -170 1526 l -170 1221 q -237 1187 -170 1187 l -678 1187 q -776 1284 -776 1187 q -576 1458 -776 1458 q -260 1333 -416 1458 z "},"ឹ":{"ha":0,"x_min":-810,"x_max":-170,"o":"m -712 1284 l -373 1284 q -494 1352 -439 1337 q -610 1367 -549 1367 q -712 1284 -712 1367 m -359 1379 q -298 1336 -328 1360 q -251 1390 -251 1340 q -305 1444 -251 1444 q -359 1390 -359 1444 q -359 1379 -359 1385 m -227 1271 q -203 1221 -203 1242 q -271 1187 -203 1187 l -712 1187 q -810 1284 -810 1187 q -610 1458 -810 1458 q -438 1421 -524 1458 l -438 1423 q -397 1500 -431 1474 q -305 1526 -363 1526 q -203 1492 -237 1526 q -170 1390 -170 1458 q -214 1279 -170 1312 l -227 1271 z "},"ឺ":{"ha":0,"x_min":-776,"x_max":-170,"o":"m -678 1284 l -339 1284 q -460 1352 -405 1337 q -576 1367 -515 1367 q -678 1284 -678 1367 m -338 1388 q -260 1333 -299 1364 l -260 1526 l -170 1526 l -170 1221 q -237 1187 -170 1187 l -678 1187 q -776 1284 -776 1187 q -576 1458 -776 1458 q -430 1432 -503 1458 l -430 1560 l -339 1560 l -339 1492 l -338 1388 z "},"ុ":{"ha":0,"x_min":-326,"x_max":-170,"o":"m -244 -68 q -170 -130 -170 -68 l -170 -441 l -271 -441 l -271 -192 q -326 -130 -326 -192 q -244 -68 -326 -68 z "},"ូ":{"ha":0,"x_min":-464,"x_max":-90,"o":"m -301 -441 q -456 -335 -456 -441 q -444 -267 -456 -305 l -410 -181 q -464 -124 -464 -181 q -382 -68 -464 -68 q -299 -139 -299 -68 q -313 -210 -299 -168 l -341 -283 q -349 -316 -349 -302 q -301 -352 -349 -352 q -193 -224 -235 -352 q -107 -68 -144 -68 q -90 -106 -90 -68 q -116 -267 -90 -156 q -301 -441 -155 -441 z "},"ួ":{"ha":0,"x_min":-528,"x_max":-90,"o":"m -309 -367 q -429 -441 -372 -441 q -528 -365 -528 -441 q -489 -252 -528 -321 l -447 -181 q -504 -124 -504 -181 q -422 -68 -504 -68 q -334 -106 -355 -68 q -328 -136 -328 -119 q -352 -212 -328 -168 l -393 -281 q -418 -348 -418 -328 q -402 -364 -418 -364 q -271 -254 -367 -364 q -233 -364 -257 -364 q -194 -294 -210 -364 q -117 -68 -143 -68 q -90 -123 -90 -68 q -102 -294 -90 -179 q -205 -441 -127 -441 q -309 -367 -282 -441 z "},"ើ":{"ha":0,"x_min":-776,"x_max":-170,"o":"m -678 1284 l -339 1284 q -460 1352 -405 1337 q -576 1367 -515 1367 q -678 1284 -678 1367 m -260 1333 l -260 1526 l -170 1526 l -170 1221 q -237 1187 -170 1187 l -678 1187 q -776 1284 -776 1187 q -576 1458 -776 1458 q -260 1333 -416 1458 z "},"ឿ":{"ha":467,"x_min":-385,"x_max":297,"o":"m -288 1352 l 52 1352 q -69 1420 -14 1404 q -186 1435 -124 1435 q -288 1352 -288 1435 m 221 1320 q 297 1153 297 1272 l 297 -271 q -8 -441 297 -441 q -313 -271 -313 -441 l -313 -68 l -186 -68 l -186 -271 q -8 -343 -186 -343 q 170 -271 170 -343 l 170 1153 q 85 1255 170 1255 l -288 1255 q -385 1352 -385 1255 q -186 1526 -385 1526 q -39 1499 -112 1526 l -39 1628 l 52 1628 l 52 1456 q 130 1401 92 1432 l 130 1594 l 221 1594 l 221 1320 z "},"ៀ":{"ha":467,"x_min":-389,"x_max":297,"o":"m -166 1256 q -236 1221 -208 1223 l -242 1221 q -295 1241 -267 1221 q -355 1371 -355 1292 q -338 1460 -355 1415 q -321 1554 -321 1506 q -389 1601 -321 1601 q -321 1669 -389 1669 q -194 1554 -194 1669 q -211 1457 -194 1496 q -228 1371 -228 1418 l -228 1341 q -16 1386 -138 1386 q 297 1112 297 1386 l 297 -271 q -8 -441 297 -441 q -313 -271 -313 -441 l -313 -68 l -186 -68 l -186 -271 q -8 -343 -186 -343 q 170 -271 170 -343 l 170 1112 q -16 1289 170 1289 q -166 1256 -125 1289 z "},"េ":{"ha":484,"x_min":68,"x_max":416,"o":"m 314 159 q 348 214 348 193 q 338 238 348 231 q 314 245 328 245 l 314 159 m 186 673 l 127 709 q 68 767 68 745 q 106 846 68 788 l 220 1017 l 293 975 l 330 954 q 384 935 361 935 q 391 936 388 935 l 416 939 q 388 872 416 916 q 332 825 360 829 q 323 824 328 824 q 259 847 298 824 l 213 873 l 184 823 l 314 746 l 314 339 q 390 305 365 339 q 416 234 416 271 q 404 158 416 195 q 314 0 393 121 l 186 0 l 186 673 z "},"ែ":{"ha":484,"x_min":43,"x_max":416,"o":"m 192 1221 q 155 1204 155 1221 q 212 1187 155 1187 q 286 1219 258 1187 q 314 1302 314 1251 q 294 1365 314 1339 q 239 1390 273 1390 q 178 1441 178 1390 q 239 1492 178 1492 q 366 1443 315 1492 q 416 1302 416 1394 q 367 1175 416 1231 q 212 1119 317 1119 q 90 1140 136 1119 q 43 1204 43 1161 q 62 1267 43 1246 q 117 1289 80 1289 q 173 1272 155 1289 q 192 1221 192 1255 m 314 159 q 348 214 348 193 q 338 238 348 231 q 314 245 328 245 l 314 159 m 186 673 l 127 709 q 68 767 68 745 q 106 846 68 788 l 220 1017 l 293 975 l 330 954 q 384 935 361 935 q 391 936 388 935 l 416 939 q 388 872 416 916 q 332 825 360 829 q 323 824 328 824 q 259 847 298 824 l 213 873 l 184 823 l 314 746 l 314 339 q 390 305 365 339 q 416 234 416 271 q 404 158 416 195 q 314 0 393 121 l 186 0 l 186 673 z "},"ៃ":{"ha":484,"x_min":43,"x_max":416,"o":"m 161 1268 q 212 1221 212 1268 q 246 1187 212 1187 q 297 1204 280 1187 q 314 1255 314 1221 q 297 1319 314 1302 q 246 1336 280 1336 l 212 1336 q 111 1404 111 1336 q 43 1458 111 1458 q 111 1526 43 1526 q 188 1495 163 1526 q 212 1404 212 1465 l 246 1404 q 378 1370 340 1404 q 416 1255 416 1336 q 378 1153 416 1187 q 246 1119 340 1119 q 111 1214 111 1119 q 161 1268 111 1268 m 314 159 q 348 214 348 193 q 338 238 348 231 q 314 245 328 245 l 314 159 m 186 673 l 127 709 q 68 767 68 745 q 106 846 68 788 l 220 1017 l 293 975 l 330 954 q 384 935 361 935 q 391 936 388 935 l 416 939 q 388 872 416 916 q 332 825 360 829 q 323 824 328 824 q 259 847 298 824 l 213 873 l 184 823 l 314 746 l 314 339 q 390 305 365 339 q 416 234 416 271 q 404 158 416 195 q 314 0 393 121 l 186 0 l 186 673 z "},"ោ":{"ha":467,"x_min":-170,"x_max":297,"o":"m -136 850 q -170 922 -170 882 q -144 964 -170 947 q -5 1017 -66 1017 q 114 972 56 1017 l 244 869 q 297 765 297 829 l 297 0 l 170 0 l 170 765 l 9 895 q -35 913 -16 913 q -56 906 -46 913 l -136 850 z "},"ៅ":{"ha":467,"x_min":-170,"x_max":349,"o":"m 288 814 q 297 765 297 791 l 297 0 l 170 0 l 170 765 l 9 895 q -35 913 -16 913 q -56 906 -46 913 l -136 850 q -170 922 -170 882 q -144 964 -170 947 q -5 1017 -66 1017 q 114 972 56 1017 l 221 888 l 221 1153 q 153 1221 221 1221 q 238 1289 153 1289 q 349 1153 349 1289 l 349 949 q 288 814 349 899 z "},"ំ":{"ha":0,"x_min":-644,"x_max":-339,"o":"m -546 1272 q -532 1221 -546 1238 q -492 1204 -519 1204 q -451 1221 -465 1204 q -437 1272 -437 1238 q -451 1322 -437 1305 q -492 1339 -465 1339 q -532 1322 -519 1339 q -546 1272 -546 1305 m -339 1272 q -377 1157 -339 1195 q -492 1119 -415 1119 q -606 1157 -568 1119 q -644 1272 -644 1195 q -606 1386 -644 1348 q -492 1424 -568 1424 q -377 1386 -415 1424 q -339 1272 -339 1348 z "},"ះ":{"ha":644,"x_min":170,"x_max":475,"o":"m 268 831 q 281 780 268 797 q 322 763 295 763 q 363 780 349 763 q 376 831 376 797 q 363 882 376 865 q 322 899 349 899 q 281 882 295 899 q 268 831 268 865 m 475 831 q 437 716 475 754 q 322 678 399 678 q 208 716 245 678 q 170 831 170 754 q 208 945 170 907 q 322 983 245 983 q 437 945 399 983 q 475 831 475 907 m 268 186 q 281 136 268 153 q 322 119 295 119 q 363 136 349 119 q 376 186 376 153 q 363 237 376 220 q 322 254 349 254 q 281 237 295 254 q 268 186 268 220 m 475 186 q 437 72 475 110 q 322 34 399 34 q 208 72 245 34 q 170 186 170 110 q 208 301 170 263 q 322 339 245 339 q 437 301 399 339 q 475 186 475 263 z "},"ៈ":{"ha":576,"x_min":170,"x_max":407,"o":"m 254 102 q 191 123 212 102 q 170 186 170 144 q 191 250 170 229 q 254 271 212 271 q 318 250 297 271 q 339 186 339 229 q 356 165 339 165 q 407 186 373 165 q 352 123 390 144 q 254 102 313 102 m 254 745 q 191 766 212 745 q 170 829 170 787 q 191 893 170 872 q 254 914 212 914 q 318 892 297 914 q 339 829 339 871 q 356 808 339 808 q 407 829 373 808 q 352 766 390 787 q 254 745 313 745 z "},"៉":{"ha":0,"x_min":-658,"x_max":-326,"o":"m -546 1424 l -546 1194 q -602 1119 -546 1139 q -658 1194 -658 1139 l -658 1424 l -546 1424 m -326 1424 l -326 1194 q -381 1119 -326 1139 q -437 1194 -437 1139 l -437 1424 l -326 1424 z "},"៊":{"ha":0,"x_min":-882,"x_max":-102,"o":"m -801 1092 q -882 1156 -882 1119 q -838 1211 -882 1181 l -793 1240 q -682 1299 -704 1299 q -584 1246 -659 1299 l -546 1219 q -509 1205 -528 1205 q -474 1219 -492 1205 l -440 1246 q -347 1299 -372 1299 q -285 1270 -323 1299 l -208 1210 q -152 1192 -185 1192 q -102 1200 -130 1192 q -214 1120 -170 1120 q -283 1139 -258 1120 l -332 1178 q -387 1198 -357 1198 q -462 1159 -416 1198 q -536 1120 -509 1120 q -609 1139 -581 1120 l -664 1178 q -721 1198 -692 1198 q -762 1183 -743 1198 q -780 1152 -780 1169 q -730 1115 -780 1135 l -801 1092 z "},"់":{"ha":0,"x_min":-543,"x_max":-427,"o":"m -427 1458 l -427 1200 q -485 1119 -427 1139 q -543 1200 -543 1139 l -543 1458 l -427 1458 z "},"៌":{"ha":0,"x_min":-725,"x_max":-258,"o":"m -543 1198 q -614 1152 -572 1185 q -681 1119 -655 1119 q -716 1137 -703 1119 q -725 1163 -725 1150 q -682 1235 -725 1204 l -618 1278 q -500 1395 -522 1344 q -479 1475 -479 1446 q -421 1543 -479 1543 q -364 1475 -364 1543 q -387 1386 -365 1426 q -502 1272 -408 1347 q -413 1289 -455 1289 q -372 1285 -392 1289 q -272 1210 -313 1272 q -258 1168 -258 1186 q -284 1128 -258 1142 q -312 1119 -298 1119 q -358 1153 -338 1119 q -434 1211 -388 1204 q -543 1198 -514 1211 z "},"៍":{"ha":0,"x_min":-668,"x_max":-186,"o":"m -566 1238 q -558 1200 -566 1213 q -526 1187 -549 1187 q -492 1200 -492 1187 q -444 1221 -492 1221 q -397 1200 -397 1221 q -427 1139 -397 1160 q -522 1119 -456 1119 q -638 1149 -608 1119 q -668 1238 -668 1179 q -637 1330 -668 1290 q -519 1370 -607 1370 q -400 1330 -433 1370 q -304 1377 -349 1347 q -233 1455 -261 1406 l -225 1456 q -197 1436 -212 1456 q -186 1413 -186 1423 q -195 1397 -186 1404 q -266 1320 -225 1354 q -358 1262 -307 1287 q -406 1255 -382 1255 q -498 1302 -456 1302 q -547 1283 -529 1302 q -566 1238 -566 1263 z "},"៎":{"ha":0,"x_min":-634,"x_max":-349,"o":"m -532 1220 l -634 1220 l -634 1302 l -532 1302 l -532 1403 l -451 1403 l -451 1302 l -349 1302 l -349 1220 l -451 1220 l -451 1119 l -532 1119 l -532 1220 z "},"៏":{"ha":0,"x_min":-729,"x_max":-254,"o":"m -390 1119 q -508 1179 -467 1119 q -610 1119 -562 1119 q -729 1273 -729 1140 q -492 1445 -640 1445 q -407 1507 -458 1485 q -296 1529 -356 1529 q -254 1493 -254 1529 q -295 1451 -254 1451 q -361 1441 -324 1451 q -414 1397 -399 1430 q -494 1364 -431 1364 q -628 1265 -562 1364 q -602 1200 -622 1215 q -498 1291 -559 1201 q -390 1200 -444 1200 q -372 1227 -372 1200 q -404 1255 -372 1255 q -424 1289 -424 1255 q -392 1322 -424 1322 q -289 1227 -289 1322 q -390 1119 -289 1119 z "},"័":{"ha":0,"x_min":-644,"x_max":-170,"o":"m -529 1356 q -441 1285 -441 1356 q -492 1221 -441 1221 q -543 1255 -536 1221 q -475 1187 -543 1187 q -313 1223 -356 1187 q -271 1331 -271 1259 q -305 1413 -271 1413 q -339 1447 -339 1413 q -305 1480 -339 1480 q -212 1443 -254 1480 q -170 1331 -170 1406 q -245 1172 -170 1225 q -475 1119 -322 1119 q -602 1153 -559 1119 q -644 1255 -644 1187 q -529 1356 -644 1356 z "},"៑":{"ha":0,"x_min":-814,"x_max":-170,"o":"m -170 1221 l -170 1119 l -814 1119 l -814 1221 l -170 1221 z "},"្":{"ha":0,"x_min":-627,"x_max":-356,"o":"m -356 -305 l -458 -305 l -458 -407 l -526 -407 l -526 -305 l -627 -305 l -627 -237 l -526 -237 l -526 -136 l -458 -136 l -458 -237 l -356 -237 l -356 -305 z "},"៓":{"ha":0,"x_min":-661,"x_max":-322,"o":"m -593 1255 q -568 1204 -593 1221 q -492 1187 -543 1187 q -415 1204 -441 1187 q -390 1255 -390 1221 q -415 1305 -390 1289 q -492 1322 -441 1322 q -568 1305 -543 1322 q -593 1255 -593 1289 m -322 1255 q -365 1153 -322 1187 q -492 1119 -407 1119 q -618 1153 -576 1119 q -661 1255 -661 1187 q -618 1356 -661 1322 q -492 1390 -576 1390 q -365 1356 -407 1390 q -322 1255 -322 1322 z "},"។":{"ha":1043,"x_min":170,"x_max":873,"o":"m 746 944 l 746 1017 l 873 1017 l 873 139 q 828 30 873 60 q 719 0 783 0 q 663 17 682 0 q 644 68 644 34 q 716 81 687 68 q 746 139 746 94 l 746 828 l 655 781 q 339 678 469 678 q 170 848 170 678 q 339 1017 170 1017 q 407 966 407 1017 q 339 916 407 916 q 297 848 297 916 q 339 780 297 780 q 608 870 439 780 l 746 944 z "},"៕":{"ha":1255,"x_min":170,"x_max":1085,"o":"m 983 1017 l 1085 1017 l 1085 102 q 1043 26 1085 51 q 916 0 1000 0 q 966 42 949 17 q 983 102 983 68 l 983 1017 m 746 944 l 746 1017 l 873 1017 l 873 139 q 828 30 873 60 q 719 0 783 0 q 663 17 682 0 q 644 68 644 34 q 716 81 687 68 q 746 139 746 94 l 746 828 l 655 781 q 339 678 469 678 q 170 848 170 678 q 339 1017 170 1017 q 407 966 407 1017 q 339 916 407 916 q 297 848 297 916 q 339 780 297 780 q 608 870 439 780 l 746 944 z "},"៖":{"ha":780,"x_min":170,"x_max":610,"o":"m 322 831 q 339 780 322 797 q 390 763 356 763 q 441 780 424 763 q 458 831 458 797 q 441 882 458 865 q 390 899 424 899 q 339 882 356 899 q 322 831 322 865 m 543 831 q 505 716 543 754 q 390 678 467 678 q 275 716 313 678 q 237 831 237 754 q 275 945 237 907 q 390 983 313 983 q 505 945 467 983 q 543 831 543 907 m 322 186 q 339 136 322 153 q 390 119 356 119 q 441 136 424 119 q 458 186 458 153 q 441 237 458 220 q 390 254 424 254 q 339 237 356 254 q 322 186 322 220 m 543 186 q 505 72 543 110 q 390 34 467 34 q 275 72 313 34 q 237 186 237 110 q 275 301 237 263 q 390 339 313 339 q 505 301 467 339 q 543 186 543 263 m 610 559 l 610 457 l 170 457 l 170 559 l 610 559 z "},"ៗ":{"ha":1009,"x_min":170,"x_max":840,"o":"m 358 696 q 206 728 243 696 q 170 820 170 761 q 237 918 191 869 q 354 1017 283 968 l 532 875 l 728 1017 l 840 1017 l 840 237 q 756 60 840 119 q 532 0 673 0 q 321 30 391 0 q 250 119 250 59 q 270 178 250 158 q 331 197 290 197 q 381 134 331 167 q 532 102 431 102 q 663 144 614 102 q 712 237 712 186 l 712 874 l 533 756 l 381 874 l 315 820 q 326 790 315 800 q 358 780 336 780 q 388 789 378 780 q 398 814 398 797 q 428 800 418 814 q 438 755 438 785 q 418 710 438 725 q 358 696 398 696 z "},"៘":{"ha":3552,"x_min":170,"x_max":3383,"o":"m 746 944 l 746 1017 l 873 1017 l 873 139 q 828 30 873 60 q 719 0 783 0 q 663 17 682 0 q 644 68 644 34 q 716 81 687 68 q 746 139 746 94 l 746 828 l 655 781 q 339 678 469 678 q 170 848 170 678 q 339 1017 170 1017 q 407 966 407 1017 q 339 916 407 916 q 297 848 297 916 q 339 780 297 780 q 608 870 439 780 l 746 944 m 1340 151 q 1407 264 1407 212 q 1388 304 1407 291 q 1340 316 1370 316 l 1340 151 m 1340 407 q 1468 367 1438 407 q 1497 281 1497 326 q 1470 170 1497 229 q 1392 55 1443 110 q 1297 0 1340 0 q 1213 68 1213 0 l 1213 684 l 1171 709 q 1138 773 1138 729 q 1206 867 1138 817 l 1299 937 q 1477 1017 1408 1017 q 1638 981 1584 1017 l 1784 880 q 1857 712 1857 831 l 1857 203 q 1910 131 1857 164 q 2035 98 1963 98 q 2159 131 2106 98 q 2212 203 2212 164 l 2212 673 l 2153 709 q 2094 767 2094 745 q 2131 846 2094 788 l 2245 1017 l 2319 975 l 2355 954 q 2410 935 2387 935 q 2417 936 2414 935 l 2441 939 q 2414 872 2441 916 q 2358 825 2386 829 q 2349 824 2354 824 q 2285 847 2323 824 l 2239 873 l 2209 823 l 2340 746 l 2340 203 q 2255 68 2340 136 q 2035 0 2170 0 q 1814 68 1899 0 q 1729 203 1729 136 l 1729 712 q 1703 783 1729 764 l 1563 879 q 1477 897 1537 897 q 1360 862 1407 897 l 1273 795 l 1299 779 q 1340 712 1340 753 l 1340 407 m 3255 944 l 3255 1017 l 3383 1017 l 3383 139 q 3338 30 3383 60 q 3228 0 3293 0 q 3172 17 3191 0 q 3153 68 3153 34 q 3226 81 3196 68 q 3255 139 3255 94 l 3255 828 l 3164 781 q 2848 678 2979 678 q 2679 848 2679 678 q 2848 1017 2679 1017 q 2916 966 2916 1017 q 2848 916 2916 916 q 2806 848 2806 916 q 2848 780 2806 780 q 3117 870 2949 780 l 3255 944 z "},"៙":{"ha":1051,"x_min":203,"x_max":848,"o":"m 526 0 q 284 119 365 0 q 203 475 203 237 q 284 831 203 712 q 526 949 365 949 q 767 831 686 949 q 848 475 848 712 q 767 119 848 237 q 526 0 686 0 m 526 870 q 345 772 405 870 q 284 475 284 673 q 345 178 284 277 q 526 79 405 79 q 707 178 646 79 q 767 475 767 277 q 707 772 767 673 q 526 870 646 870 m 526 158 q 405 237 445 158 q 365 475 365 317 q 405 712 365 633 q 526 791 445 791 q 646 712 606 791 q 686 475 686 633 q 646 237 686 317 q 526 158 606 158 m 526 712 q 465 653 486 712 q 445 475 445 593 q 465 297 445 356 q 526 237 486 237 q 586 297 566 237 q 606 475 606 356 q 586 653 606 593 q 526 712 566 712 z "},"៚":{"ha":2658,"x_min":170,"x_max":2489,"o":"m 1981 365 q 1970 347 1970 353 q 1971 344 1970 345 q 1979 338 1974 338 q 1988 342 1983 338 q 1988 345 1988 343 q 1981 365 1988 350 m 1080 664 q 1122 753 1122 728 q 1117 767 1122 762 q 1085 783 1101 783 q 1048 760 1066 783 q 1044 744 1044 753 q 1072 676 1044 720 q 1080 664 1076 670 m 1269 298 q 1239 243 1239 260 q 1242 235 1239 238 q 1270 220 1255 220 q 1295 231 1282 220 q 1299 239 1299 233 q 1269 298 1299 257 m 1499 690 q 1527 737 1527 724 q 1525 742 1527 740 q 1503 755 1515 755 q 1482 747 1493 755 q 1479 739 1479 745 q 1499 690 1479 724 m 1653 317 q 1639 298 1639 302 q 1640 296 1639 297 q 1651 291 1645 291 q 1662 294 1656 291 q 1663 297 1663 295 q 1653 317 1663 302 m 1887 664 q 1904 685 1904 681 q 1903 686 1904 686 q 1895 689 1900 689 q 1883 683 1889 689 q 1881 680 1881 682 q 1887 664 1881 674 m 1976 538 q 2005 500 1992 519 q 2064 521 2032 513 q 2245 543 2142 543 l 2424 543 q 2489 492 2489 543 q 2422 441 2489 441 l 2245 441 q 2054 418 2099 441 q 2074 367 2068 391 q 2079 331 2079 347 q 2047 264 2079 289 q 1973 235 2008 235 q 1963 236 1968 235 q 1888 284 1923 241 q 1862 351 1862 317 q 1864 371 1862 361 q 1924 452 1874 412 q 1902 484 1914 467 q 1880 513 1890 498 q 1811 454 1849 484 q 1721 379 1758 410 q 1742 331 1734 353 q 1753 275 1753 300 q 1725 215 1753 237 q 1650 186 1685 186 q 1638 186 1644 186 q 1561 238 1596 193 q 1546 285 1546 258 q 1569 358 1546 317 q 1597 398 1581 377 q 1539 475 1573 431 l 1492 533 q 1416 452 1459 495 q 1329 366 1365 404 q 1374 285 1358 321 q 1390 219 1390 248 q 1358 155 1390 178 q 1265 117 1310 117 q 1257 118 1261 117 q 1166 172 1208 122 q 1145 231 1145 197 q 1166 311 1145 266 q 1206 376 1181 341 q 1139 449 1177 408 q 1089 503 1112 477 q 981 362 1044 438 q 697 91 829 181 q 451 0 564 0 q 240 127 311 0 q 170 509 170 254 q 250 890 170 763 q 492 1017 331 1017 q 734 950 653 1017 q 814 749 814 883 q 755 528 814 611 q 579 414 696 444 q 553 410 565 410 q 509 446 519 410 q 506 464 506 456 q 553 511 506 498 q 672 590 632 532 q 712 744 712 648 q 657 872 712 829 q 492 916 602 916 q 327 814 382 916 q 272 513 272 713 l 272 509 q 317 203 272 305 q 452 102 361 102 q 651 180 541 102 q 892 416 761 259 q 1025 585 973 514 q 971 682 989 637 q 954 759 954 724 q 983 836 954 804 q 1083 895 1033 894 l 1084 895 q 1183 838 1133 895 q 1208 766 1208 810 q 1182 663 1208 722 q 1142 585 1166 627 q 1206 514 1171 552 q 1265 449 1238 480 q 1340 528 1298 486 q 1434 619 1395 579 q 1397 704 1412 659 q 1386 762 1386 736 q 1419 833 1386 808 q 1506 867 1466 867 q 1516 867 1511 867 q 1600 812 1562 861 q 1618 758 1618 789 q 1593 673 1618 722 q 1555 611 1578 644 q 1610 541 1579 580 q 1664 470 1640 504 q 1735 534 1695 500 q 1820 604 1785 574 q 1796 661 1804 635 q 1790 701 1790 682 q 1822 764 1790 741 q 1895 793 1860 793 q 1907 792 1901 793 q 1984 741 1948 787 q 2001 694 2001 721 q 1977 624 2001 663 q 1944 579 1964 603 q 1976 538 1959 561 z "},"៛":{"ha":484,"x_min":68,"x_max":416,"o":"m 186 245 q 163 238 173 245 q 153 214 153 231 q 186 159 153 193 l 186 245 m 314 441 l 314 0 l 186 0 l 142 64 q 83 162 98 128 q 68 234 68 195 q 94 305 68 271 q 186 339 119 339 l 186 441 l 90 441 l 90 543 l 186 543 l 186 673 l 127 709 q 68 767 68 745 q 106 846 68 788 l 220 1017 l 293 975 l 330 954 q 384 935 361 935 q 391 936 388 935 l 416 939 q 388 872 416 916 q 332 825 360 829 q 323 824 328 824 q 259 847 298 824 l 213 873 l 184 823 l 314 746 l 314 543 l 395 543 l 395 441 l 314 441 z "},"០":{"ha":1051,"x_min":170,"x_max":882,"o":"m 250 127 q 170 407 170 254 l 170 610 q 250 890 170 763 q 526 1017 331 1017 q 801 890 721 1017 q 882 610 882 763 l 882 407 q 801 127 882 254 q 526 0 721 0 q 250 127 331 0 m 346 817 q 297 610 297 714 l 297 407 q 346 201 297 303 q 526 98 395 98 q 705 201 657 98 q 754 407 754 303 l 754 610 q 705 817 754 714 q 526 920 657 920 q 346 817 395 920 z "},"១":{"ha":1051,"x_min":170,"x_max":882,"o":"m 882 610 q 761 158 882 315 q 407 0 640 0 l 339 0 l 339 98 l 407 98 q 679 228 603 98 q 754 610 754 357 q 686 858 754 795 q 513 920 616 920 q 353 861 408 920 q 297 699 297 802 q 330 572 297 614 q 429 529 363 529 q 496 576 477 529 q 441 637 441 586 q 526 726 441 726 q 610 637 610 726 q 564 492 610 545 q 429 438 516 438 q 238 512 306 438 q 170 699 170 585 q 257 924 170 831 q 513 1017 345 1017 q 781 921 680 1017 q 882 610 882 824 z "},"២":{"ha":1119,"x_min":68,"x_max":949,"o":"m 534 593 l 534 543 q 567 576 567 543 q 558 589 567 585 q 534 593 550 593 m 543 0 q 264 78 359 0 q 170 271 170 156 l 170 983 q 68 1062 170 1062 q 156 1153 68 1153 q 297 983 297 1153 l 297 271 q 360 141 297 184 q 543 98 423 98 l 576 98 q 759 141 696 98 q 822 271 822 184 l 822 814 q 781 892 822 857 q 779 893 780 893 q 679 780 761 893 q 578 893 598 893 q 575 892 576 893 q 534 814 534 857 l 534 661 q 610 640 585 661 q 635 576 635 618 q 534 475 635 475 q 407 543 407 475 l 407 814 q 481 957 407 897 q 575 1017 555 1017 q 679 926 595 1017 q 782 1017 762 1017 q 876 957 802 1017 q 949 814 949 897 l 949 271 q 854 78 949 156 q 576 0 760 0 l 543 0 z "},"៣":{"ha":1229,"x_min":170,"x_max":1059,"o":"m 297 119 l 297 68 q 330 102 330 68 q 321 115 330 110 q 297 119 313 119 m 551 780 q 424 926 551 926 q 297 780 297 926 l 297 186 q 372 165 347 186 q 397 102 397 144 q 297 0 397 0 q 170 68 170 0 l 170 780 q 424 1017 170 1017 q 614 958 551 1017 q 805 1017 678 1017 q 1059 780 1059 1017 l 1059 0 l 932 0 l 932 780 q 805 926 932 926 q 678 780 678 926 l 678 0 l 551 0 l 551 780 z "},"៤":{"ha":1051,"x_min":170,"x_max":882,"o":"m 800 475 q 807 498 807 481 q 780 533 807 519 l 780 467 q 800 475 793 467 m 170 543 q 417 850 170 776 l 609 912 q 754 1038 754 958 q 686 1085 754 1085 q 754 1153 686 1153 q 882 1038 882 1153 q 650 822 882 895 l 444 758 q 297 543 297 710 l 297 203 q 350 131 297 164 q 475 98 403 98 l 754 98 q 652 305 652 252 l 652 475 q 743 610 652 610 q 824 594 793 610 q 868 547 855 577 q 882 478 882 517 q 858 407 882 441 q 780 373 834 373 l 780 305 q 831 161 780 237 l 882 85 l 882 0 l 475 0 q 254 68 339 0 q 170 203 170 136 l 170 543 z "},"៥":{"ha":1051,"x_min":170,"x_max":949,"o":"m 456 822 q 479 867 479 845 q 426 926 479 926 q 373 867 373 926 q 456 822 373 837 m 800 407 q 807 431 807 414 q 780 465 807 452 l 780 399 q 800 407 793 399 m 553 805 l 689 787 q 701 786 695 786 q 754 882 754 786 l 754 1038 q 882 1153 754 1153 q 949 1085 949 1153 q 882 1038 882 1085 l 882 882 q 729 678 882 678 l 467 722 q 420 695 446 709 q 297 481 297 648 l 297 203 q 350 131 297 164 q 475 98 403 98 l 754 98 q 652 271 652 218 l 652 407 q 743 543 652 543 q 824 526 793 543 q 868 479 855 509 q 882 410 882 449 q 858 339 882 373 q 780 305 834 305 l 780 271 q 882 85 780 203 l 882 0 l 475 0 q 254 68 339 0 q 170 203 170 136 l 170 481 q 350 758 170 671 q 282 867 282 795 q 426 1017 282 1017 q 570 867 570 1017 q 553 805 570 835 z "},"៦":{"ha":1051,"x_min":68,"x_max":882,"o":"m 297 926 q 530 1017 385 1017 q 791 910 701 1017 q 882 543 882 804 l 882 407 q 791 107 882 214 q 526 0 701 0 q 250 96 331 0 q 170 319 170 193 q 231 482 170 422 q 401 543 292 543 q 533 503 489 543 q 576 370 576 463 q 509 302 576 302 q 441 370 441 302 q 462 425 441 408 q 401 452 443 452 q 297 319 297 452 q 346 159 297 222 q 526 98 395 98 q 695 170 637 98 q 754 407 754 242 l 754 543 q 695 847 754 775 q 530 920 637 920 q 297 746 374 920 q 233 678 297 678 q 170 746 170 678 l 170 1017 q 68 1096 170 1096 q 156 1187 68 1187 q 297 1017 297 1187 l 297 926 z "},"៧":{"ha":1213,"x_min":170,"x_max":1043,"o":"m 297 151 q 363 264 363 212 q 345 304 363 291 q 297 316 327 316 l 297 151 m 814 136 q 865 98 814 98 q 916 136 916 98 l 916 983 q 814 1062 916 1062 q 902 1153 814 1153 q 1043 983 1043 1153 l 1043 136 q 865 0 1043 0 q 686 136 686 0 l 686 814 q 635 892 686 857 q 609 901 623 901 q 492 813 563 901 q 374 901 421 901 q 348 892 360 901 q 297 814 297 857 l 297 407 q 425 367 395 407 q 454 281 454 326 q 427 170 454 229 q 349 55 400 110 l 297 0 l 170 0 l 170 814 q 248 957 170 897 q 370 1017 327 1017 q 492 926 405 1017 q 615 1017 579 1017 q 735 957 657 1017 q 814 814 814 897 l 814 136 z "},"៨":{"ha":1051,"x_min":170,"x_max":983,"o":"m 754 399 l 754 465 q 727 431 727 452 q 734 407 727 414 q 754 399 741 399 m 170 678 q 250 920 170 824 q 515 1017 330 1017 q 754 926 666 1017 l 754 1017 q 895 1187 754 1187 q 983 1096 983 1187 q 882 1017 882 1096 l 882 780 q 818 712 882 712 q 754 746 769 712 q 515 920 677 920 q 345 857 394 920 q 297 678 297 795 l 297 203 q 360 125 297 160 q 389 117 374 117 q 526 218 446 117 q 663 117 607 117 q 692 125 678 117 q 754 203 754 160 l 754 305 q 676 339 700 305 q 652 410 652 373 q 666 479 652 449 q 710 526 679 509 q 791 543 741 543 q 882 407 882 543 l 882 203 q 795 60 882 121 q 662 0 709 0 q 526 98 623 0 q 391 0 430 0 q 256 60 343 0 q 170 203 170 121 l 170 678 z "},"៩":{"ha":1051,"x_min":170,"x_max":882,"o":"m 715 174 l 753 197 q 743 213 753 213 q 734 211 739 213 q 714 196 718 205 q 712 186 712 192 q 715 174 712 181 m 640 134 q 629 189 629 165 q 637 225 629 210 q 688 273 653 260 q 751 286 720 286 l 757 286 q 819 262 789 285 q 848 169 848 239 q 749 49 848 98 q 509 0 649 0 q 260 71 340 0 q 170 305 170 150 q 220 496 170 420 q 372 608 271 572 q 305 780 305 667 q 375 966 305 907 q 562 1017 435 1017 q 754 926 666 1017 l 754 1017 q 652 1096 754 1096 q 741 1187 652 1187 q 882 1017 882 1187 l 882 814 q 818 746 882 746 q 754 780 769 746 q 562 926 656 926 q 468 897 496 926 q 433 783 433 862 q 474 676 433 712 q 597 640 515 640 q 844 547 728 640 q 882 453 882 514 q 866 425 882 425 q 804 467 846 425 q 597 543 726 543 q 372 484 447 543 q 297 305 297 424 q 355 143 297 199 q 509 98 404 98 q 640 134 567 98 z "}}}
